<svg xmlns="http://www.w3.org/2000/svg" viewBox="0 0 310.365 160.534">
  <defs>
    <style>
      .cls-1 {
        fill: #091e38;
      }

      .cls-10, .cls-11, .cls-12, .cls-2, .cls-6, .cls-7, .cls-8, .cls-9 {
        fill: #31f1fe;
      }

      .cls-3, .cls-4, .cls-5 {
        fill: none;
      }

      .cls-10, .cls-11, .cls-12, .cls-3, .cls-4, .cls-5, .cls-6, .cls-7, .cls-8, .cls-9 {
        stroke: #31f1fe;
      }

      .cls-3 {
        opacity: 0.396;
      }

      .cls-5 {
        opacity: 0.399;
      }

      .cls-6 {
        opacity: 0.398;
      }

      .cls-7 {
        opacity: 0.404;
      }

      .cls-8 {
        opacity: 0.498;
      }

      .cls-10, .cls-9 {
        stroke-width: 0.5px;
      }

      .cls-11, .cls-9 {
        opacity: 0.404;
      }

      .cls-11, .cls-12 {
        stroke-width: 0.3px;
      }
    </style>
  </defs>
  <g id="气泡-2" transform="translate(-385.75 -635)">
    <path id="Union_2" data-name="Union 2" class="cls-1" d="M.05,160.288,0,.049H7.166L310.365,0l-.22,160.323Z" transform="translate(385.75 635.211)"/>
    <rect id="Rectangle_1797" data-name="Rectangle 1797" class="cls-2" width="21.099" height="2.532" transform="translate(390.181 635)"/>
    <rect id="Rectangle_1798" data-name="Rectangle 1798" class="cls-2" width="21.099" height="2.532" transform="translate(691.684 795.141) rotate(180)"/>
    <g id="Group_2224" data-name="Group 2224" transform="translate(413.812 635)">
      <circle id="Ellipse_1" data-name="Ellipse 1" class="cls-2" cx="1.266" cy="1.266" r="1.266" transform="translate(0 0)"/>
      <line id="Line_1" data-name="Line 1" class="cls-3" x2="93.679" transform="translate(2.11 1.266)"/>
      <line id="Line_2" data-name="Line 2" class="cls-4" x2="21.943" transform="translate(100.009 1.266)"/>
      <circle id="Ellipse_2" data-name="Ellipse 2" class="cls-2" cx="0.844" cy="0.844" r="0.844" transform="translate(97.055 0.422)"/>
    </g>
    <g id="Group_2225" data-name="Group 2225" transform="translate(668.054 795.141) rotate(180)">
      <circle id="Ellipse_1-2" data-name="Ellipse 1" class="cls-2" cx="1.266" cy="1.266" r="1.266"/>
      <line id="Line_1-2" data-name="Line 1" class="cls-3" x2="93.679" transform="translate(2.11 1.266)"/>
      <line id="Line_2-2" data-name="Line 2" class="cls-4" x2="21.943" transform="translate(100.009 1.266)"/>
      <circle id="Ellipse_2-2" data-name="Ellipse 2" class="cls-2" cx="0.844" cy="0.844" r="0.844" transform="translate(97.055 0.422)"/>
    </g>
    <g id="Group_2226" data-name="Group 2226" transform="translate(387.227 793.242)">
      <line id="Line_1-3" data-name="Line 1" class="cls-5" x2="93.679" transform="translate(0 0.844)"/>
      <line id="Line_2-3" data-name="Line 2" class="cls-4" x2="21.943" transform="translate(97.899 0.844)"/>
      <circle id="Ellipse_2-3" data-name="Ellipse 2" class="cls-2" cx="0.844" cy="0.844" r="0.844" transform="translate(94.945 0)"/>
    </g>
    <g id="Group_2227" data-name="Group 2227" transform="translate(694.638 636.899) rotate(180)">
      <line id="Line_1-4" data-name="Line 1" class="cls-5" x2="93.679" transform="translate(0 0.844)"/>
      <line id="Line_2-4" data-name="Line 2" class="cls-4" x2="21.943" transform="translate(97.899 0.844)"/>
      <circle id="Ellipse_2-4" data-name="Ellipse 2" class="cls-2" cx="0.844" cy="0.844" r="0.844" transform="translate(94.945)"/>
    </g>
    <g id="Group_2228" data-name="Group 2228" transform="translate(388.282 635.211) rotate(90)">
      <circle id="Ellipse_3" data-name="Ellipse 3" class="cls-2" cx="1.266" cy="1.266" r="1.266" transform="translate(0 0)"/>
      <path id="Path_6" data-name="Path 6" class="cls-6" d="M0,0H32.07" transform="translate(3.798 1.266)"/>
      <line id="Line_4" data-name="Line 4" class="cls-4" x2="21.943" transform="translate(40.932 1.266)"/>
      <circle id="Ellipse_4" data-name="Ellipse 4" class="cls-2" cx="0.844" cy="0.844" r="0.844" transform="translate(37.978 0.422)"/>
    </g>
    <g id="Group_2229" data-name="Group 2229" transform="translate(693.583 794.93) rotate(-90)">
      <circle id="Ellipse_3-2" data-name="Ellipse 3" class="cls-2" cx="1.266" cy="1.266" r="1.266" transform="translate(0 0)"/>
      <path id="Path_6-2" data-name="Path 6" class="cls-6" d="M0,0H32.07" transform="translate(3.798 1.266)"/>
      <line id="Line_4-2" data-name="Line 4" class="cls-4" x2="21.943" transform="translate(40.932 1.266)"/>
      <circle id="Ellipse_4-2" data-name="Ellipse 4" class="cls-2" cx="0.844" cy="0.844" r="0.844" transform="translate(37.978 0.422)"/>
    </g>
    <g id="Group_2230" data-name="Group 2230" transform="translate(385.75 795.141) rotate(-90)">
      <circle id="Ellipse_3-3" data-name="Ellipse 3" class="cls-2" cx="1.266" cy="1.266" r="1.266" transform="translate(0 0)"/>
      <path id="Path_7" data-name="Path 7" class="cls-7" d="M0,0H39.666" transform="translate(1.266 1.266)"/>
      <line id="Line_4-3" data-name="Line 4" class="cls-4" x2="21.943" transform="translate(51.059 1.266)"/>
      <circle id="Ellipse_4-3" data-name="Ellipse 4" class="cls-2" cx="0.844" cy="0.844" r="0.844" transform="translate(48.106 0.422)"/>
    </g>
    <g id="Group_2231" data-name="Group 2231" transform="translate(696.115 635) rotate(90)">
      <circle id="Ellipse_3-4" data-name="Ellipse 3" class="cls-2" cx="1.266" cy="1.266" r="1.266" transform="translate(0 0)"/>
      <path id="Path_7-2" data-name="Path 7" class="cls-7" d="M0,0H39.666" transform="translate(1.266 1.266)"/>
      <line id="Line_4-4" data-name="Line 4" class="cls-4" x2="21.943" transform="translate(51.059 1.266)"/>
      <circle id="Ellipse_4-4" data-name="Ellipse 4" class="cls-2" cx="0.844" cy="0.844" r="0.844" transform="translate(48.106 0.422)"/>
    </g>
    <path id="Path_2462" data-name="Path 2462" class="cls-8" d="M0,0H15.613" transform="translate(387.016 702.306) rotate(90)"/>
    <path id="Path_2463" data-name="Path 2463" class="cls-8" d="M0,0H15.613" transform="translate(694.849 727.835) rotate(-90)"/>
    <path id="Path_2464" data-name="Path 2464" class="cls-8" d="M17,0H32.613" transform="translate(531.845 636.266)"/>
    <path id="Path_2465" data-name="Path 2465" class="cls-8" d="M17,0H32.613" transform="translate(503.15 794.086)"/>
    <g id="Group_2232" data-name="Group 2232" transform="translate(385.961 784.38)">
      <circle id="Ellipse_5" data-name="Ellipse 5" class="cls-2" cx="1.055" cy="1.055" r="1.055" transform="translate(0 0)"/>
      <path id="Path_3" data-name="Path 3" class="cls-9" d="M0,0H37.134" transform="translate(1.266 1.266)"/>
      <path id="Path_5" data-name="Path 5" class="cls-9" d="M0,0H3.376" transform="translate(40.932 1.266)"/>
      <path id="Path_4" data-name="Path 4" class="cls-10" d="M0,0H.844" transform="translate(39.244 1.266)"/>
    </g>
    <g id="Group_2233" data-name="Group 2233" transform="translate(695.904 788.389) rotate(180)">
      <circle id="Ellipse_5-2" data-name="Ellipse 5" class="cls-2" cx="1.055" cy="1.055" r="1.055" transform="translate(0 0)"/>
      <path id="Path_3-2" data-name="Path 3" class="cls-9" d="M0,0H37.134" transform="translate(1.266 1.266)"/>
      <path id="Path_5-2" data-name="Path 5" class="cls-9" d="M0,0H3.376" transform="translate(40.932 1.266)"/>
      <path id="Path_4-2" data-name="Path 4" class="cls-10" d="M0,0H.844" transform="translate(39.244 1.266)"/>
    </g>
    <g id="Group_2234" data-name="Group 2234" transform="translate(386.383 779.317)">
      <circle id="Ellipse_5-3" data-name="Ellipse 5" class="cls-2" cx="0.633" cy="0.633" r="0.633" transform="translate(0 0)"/>
      <path id="Path_3-3" data-name="Path 3" class="cls-11" d="M0,0H11.815" transform="translate(0.844 0.844)"/>
      <path id="Path_5-3" data-name="Path 5" class="cls-11" d="M0,0H3.376" transform="translate(15.191 0.844)"/>
      <path id="Path_4-3" data-name="Path 4" class="cls-12" d="M0,0H.844" transform="translate(13.503 0.844)"/>
    </g>
    <g id="Group_2235" data-name="Group 2235" transform="translate(695.482 781.638) rotate(180)">
      <circle id="Ellipse_5-4" data-name="Ellipse 5" class="cls-2" cx="0.633" cy="0.633" r="0.633" transform="translate(0 0)"/>
      <path id="Path_3-4" data-name="Path 3" class="cls-11" d="M0,0H11.815" transform="translate(0.844 0.844)"/>
      <path id="Path_5-4" data-name="Path 5" class="cls-11" d="M0,0H3.376" transform="translate(15.191 0.844)"/>
      <path id="Path_4-4" data-name="Path 4" class="cls-12" d="M0,0H.844" transform="translate(13.503 0.844)"/>
    </g>
  </g>
</svg>
