<svg xmlns="http://www.w3.org/2000/svg" viewBox="0 0 510.674 347.637">
  <defs>
    <style>
      .cls-1 {
        fill: #091e38;
      }

      .cls-15, .cls-16, .cls-2, .cls-3, .cls-6 {
        fill: #31f1fe;
      }

      .cls-2 {
        opacity: 0.502;
      }

      .cls-3 {
        opacity: 0.501;
      }

      .cls-4 {
        fill: #a4edfc;
      }

      .cls-10, .cls-11, .cls-12, .cls-13, .cls-14, .cls-17, .cls-18, .cls-23, .cls-24, .cls-5, .cls-7, .cls-8, .cls-9 {
        fill: none;
      }

      .cls-10, .cls-11, .cls-12, .cls-13, .cls-14, .cls-15, .cls-16, .cls-17, .cls-18, .cls-20, .cls-5, .cls-7, .cls-8, .cls-9 {
        stroke: #31f1fe;
      }

      .cls-7 {
        opacity: 0.299;
      }

      .cls-8 {
        opacity: 0.201;
      }

      .cls-9 {
        opacity: 0.698;
      }

      .cls-10 {
        opacity: 0.702;
      }

      .cls-11 {
        opacity: 0.299;
      }

      .cls-12 {
        opacity: 0.705;
      }

      .cls-13 {
        opacity: 0.697;
      }

      .cls-14 {
        opacity: 0.301;
      }

      .cls-16, .cls-17 {
        opacity: 0.699;
      }

      .cls-18 {
        opacity: 0.304;
      }

      .cls-19 {
        opacity: 0.8;
      }

      .cls-20 {
        fill: #0a1e38;
      }

      .cls-21, .cls-22 {
        fill: #0ed5cd;
      }

      .cls-22 {
        opacity: 0.2;
      }

      .cls-23 {
        stroke: #05acd4;
      }

      .cls-23, .cls-24 {
        stroke-miterlimit: 10;
        stroke-width: 0.5px;
      }

      .cls-24 {
        stroke: #05a4d4;
      }
    </style>
  </defs>
  <g id="气泡-1" transform="translate(-477.994 -513.409)">
    <path id="Union_1" data-name="Union 1" class="cls-1" d="M-6196-587.573l.292-306.208,11.368-13.987,488.65-.163,9.77,14.421.2,305.938Z" transform="translate(6674 1421.34)"/>
    <path id="Path_10" data-name="Path 10" class="cls-2" d="M2.919-.181H36.665l-2.977,2.7H.542Z" transform="translate(487 516)"/>
    <path id="Path_31" data-name="Path 31" class="cls-3" d="M2.919-.181H36.665l2.023,2.7H5.542Z" transform="translate(939 516)"/>
    <path id="Path_24" data-name="Path 24" class="cls-4" d="M19.592-.132H30.683l-.125,2.574H23.466Z" transform="translate(524 516)"/>
    <path id="Path_32" data-name="Path 32" class="cls-4" d="M23.466-.132h7.217l-.125,2.574H19.79Z" transform="translate(940.275 518.311) rotate(180)"/>
    <path id="Path_25" data-name="Path 25" class="cls-4" d="M23.654-.132h3.122L37.2,26.144H34.013Z" transform="translate(573 516)"/>
    <path id="Path_36" data-name="Path 36" class="cls-4" d="M43.654-.132h3.122L37.2,26.144H34.013Z" transform="translate(821 516)"/>
    <path id="Path_11" data-name="Path 11" class="cls-5" d="M17,0,4.85,12.314" transform="translate(473.5 516.5)"/>
    <path id="Path_29" data-name="Path 29" class="cls-5" d="M17,0,4.85,12.314" transform="translate(988.868 512.564) rotate(97)"/>
    <path id="Path_16" data-name="Path 16" class="cls-5" d="M0,30v88" transform="translate(478.5 498.5)"/>
    <path id="Path_30" data-name="Path 30" class="cls-5" d="M0,30v88" transform="translate(986.5 498.5)"/>
    <path id="Path_12" data-name="Path 12" class="cls-6" d="M0,0,9.626,6.92v37L0,37Z" transform="translate(478 591)"/>
    <path id="Path_33" data-name="Path 33" class="cls-6" d="M0,0-10.374,6.92v37L0,37Z" transform="translate(987 591)"/>
    <path id="Path_21" data-name="Path 21" class="cls-6" d="M4.278,12.358l5.537,4.565v26.99L4.278,39.358Z" transform="translate(579.773 816.147) rotate(90)"/>
    <path id="Path_40" data-name="Path 40" class="cls-6" d="M4.124,22.177,9.982,16.9V43.945L4.124,49.177Z" transform="translate(946.773 816.147) rotate(90)"/>
    <path id="Path_13" data-name="Path 13" class="cls-7" d="M0-20V28" transform="translate(483.5 647.5)"/>
    <path id="Path_37" data-name="Path 37" class="cls-7" d="M0-20V28" transform="translate(982.5 647.5)"/>
    <path id="Path_14" data-name="Path 14" class="cls-7" d="M23.489,1.275h-23" transform="translate(617.209 826.225)"/>
    <path id="Path_44" data-name="Path 44" class="cls-7" d="M23.489,1.275h-23" transform="translate(828.209 826.225)"/>
    <path id="Path_23" data-name="Path 23" class="cls-8" d="M49.955,1.275H.492" transform="translate(641.209 826.225)"/>
    <path id="Path_45" data-name="Path 45" class="cls-8" d="M49.955,1.275H.492" transform="translate(775.209 826.225)"/>
    <rect id="Rectangle_3" data-name="Rectangle 3" class="cls-6" width="1" height="2" transform="translate(483 674)"/>
    <rect id="Rectangle_6" data-name="Rectangle 6" class="cls-6" width="1" height="2" transform="translate(982 674)"/>
    <rect id="Rectangle_4" data-name="Rectangle 4" class="cls-6" width="2" height="1" transform="translate(615 827)"/>
    <rect id="Rectangle_8" data-name="Rectangle 8" class="cls-6" width="2" height="1" transform="translate(826 827)"/>
    <rect id="Rectangle_5" data-name="Rectangle 5" class="cls-6" width="2" height="1" transform="translate(679 542)"/>
    <rect id="Rectangle_7" data-name="Rectangle 7" class="cls-6" width="2" height="1" transform="translate(787 542)"/>
    <path id="Path_17" data-name="Path 17" class="cls-9" d="M0,0V90" transform="translate(483.5 737.5)"/>
    <path id="Path_38" data-name="Path 38" class="cls-9" d="M0,0V90" transform="translate(982.5 737.5)"/>
    <circle id="Ellipse_6" data-name="Ellipse 6" class="cls-6" cx="1.5" cy="1.5" r="1.5" transform="translate(482 826)"/>
    <circle id="Ellipse_9" data-name="Ellipse 9" class="cls-6" cx="1.5" cy="1.5" r="1.5" transform="translate(981 826)"/>
    <path id="Path_18" data-name="Path 18" class="cls-10" d="M0,0H131" transform="translate(483.5 827.5)"/>
    <path id="Path_46" data-name="Path 46" class="cls-10" d="M0,0H131" transform="translate(852.5 827.5)"/>
    <path id="Path_15" data-name="Path 15" class="cls-6" d="M0,0,5.582-.112,3.124,2.716l-5.582.112Z" transform="translate(485.16 759.427) rotate(-41)"/>
    <path id="Path_39" data-name="Path 39" class="cls-6" d="M4.071-5.453,4.986.368,2.533,3.189,1.673-2.694Z" transform="translate(977.16 762.427) rotate(-41)"/>
    <line id="Line_5" data-name="Line 5" class="cls-11" y2="29" transform="translate(485.5 760.5)"/>
    <line id="Line_8" data-name="Line 8" class="cls-11" y2="29" transform="translate(980.5 760.5)"/>
    <line id="Line_6" data-name="Line 6" class="cls-12" y2="5" transform="translate(485.5 789.5)"/>
    <line id="Line_9" data-name="Line 9" class="cls-12" y2="5" transform="translate(980.5 789.5)"/>
    <line id="Line_7" data-name="Line 7" class="cls-12" y2="3" transform="translate(486.5 790.5)"/>
    <line id="Line_10" data-name="Line 10" class="cls-12" y2="3" transform="translate(979.5 790.5)"/>
    <path id="Path_19" data-name="Path 19" class="cls-13" d="M.261,0V21.418" transform="translate(485.239 800.5)"/>
    <path id="Path_41" data-name="Path 41" class="cls-13" d="M.261,0V21.418" transform="translate(980.239 800.5)"/>
    <path id="Path_20" data-name="Path 20" class="cls-14" d="M-.09,0,4.345,4.2" transform="translate(485.5 821.5)"/>
    <path id="Path_42" data-name="Path 42" class="cls-14" d="M-.129.011,4.345,4.2" transform="translate(980.714 821.498) rotate(90)"/>
    <path id="Path_22" data-name="Path 22" class="cls-5" d="M0,0H50" transform="translate(489.5 825.5)"/>
    <path id="Path_47" data-name="Path 47" class="cls-5" d="M0,0H50" transform="translate(927.5 825.5)"/>
    <path id="Path_26" data-name="Path 26" class="cls-15" d="M0,0H44.8" transform="translate(554.5 516.5)"/>
    <path id="Path_34" data-name="Path 34" class="cls-5" d="M0,0H44.8" transform="translate(865.5 516.5)"/>
    <path id="Path_27" data-name="Path 27" class="cls-16" d="M0,0H122" transform="translate(555.5 542.5)"/>
    <path id="Path_35" data-name="Path 35" class="cls-17" d="M0,0H122" transform="translate(790.5 542.5)"/>
    <path id="Path_28" data-name="Path 28" class="cls-18" d="M0,0H35" transform="translate(682.5 542.5)"/>
    <path id="Path_43" data-name="Path 43" class="cls-18" d="M22,0H57" transform="translate(728 542.5)"/>
    <circle id="Ellipse_7" data-name="Ellipse 7" class="cls-6" cx="1.5" cy="1.5" r="1.5" transform="translate(553 541)"/>
    <circle id="Ellipse_8" data-name="Ellipse 8" class="cls-6" cx="1.5" cy="1.5" r="1.5" transform="translate(910 541)"/>
    <g id="Group_2240" data-name="Group 2240" transform="translate(173 3)">
      <g id="Group_2237" data-name="Group 2237" class="cls-19" transform="translate(533.755 830.849)">
        <path id="Path_1670" data-name="Path 1670" class="cls-20" d="M90,1l26.49,26.49L142.981,1Z" transform="translate(-90 -1)"/>
      </g>
      <g id="Group_2238" data-name="Group 2238" transform="translate(552.894 836.743)">
        <path id="Path_1672" data-name="Path 1672" class="cls-21" d="M128.635,9.9l-2.384,2.384L123.867,9.9H118.9l7.351,7.351L133.6,9.9Z" transform="translate(-118.9 -9.9)"/>
      </g>
      <path id="Path_2473" data-name="Path 2473" class="cls-22" d="M108.37,6.2H105l9.933,9.734h3.311Z" transform="translate(438.689 828.16)"/>
      <path id="Path_2474" data-name="Path 2474" class="cls-22" d="M144.891,6.223h3.266l-9.845,9.711H135Z" transform="translate(428.556 828.16)"/>
    </g>
    <g id="视频窗口" transform="translate(480.788 570.1)">
      <g id="Group_1132" data-name="Group 1132" transform="translate(11.534 -21.538)">
        <path id="Path_1610" data-name="Path 1610" class="cls-23" d="M10.5,8.426V4.463H158.735L165.794.5H335.206l7.059,3.963H490.5V8.426" transform="translate(-10.5 -0.5)"/>
        <path id="Path_1611" data-name="Path 1611" class="cls-24" d="M480.139,30.5H331.27l-6.883,5.255H159.192L152.309,30.5H3.53" transform="translate(-1.284 234.245)"/>
      </g>
    </g>
  </g>
</svg>
