<svg xmlns="http://www.w3.org/2000/svg" xmlns:xlink="http://www.w3.org/1999/xlink" viewBox="0 0 93.631 27.895">
  <defs>
    <style>
      .cls-1 {
        fill: url(#linear-gradient);
      }

      .cls-2 {
        fill: #2bd1e3;
      }

      .cls-3 {
        fill: #2bcfe3;
      }

      .cls-4, .cls-5 {
        fill: none;
      }

      .cls-4 {
        stroke: #2bcfe3;
      }

      .cls-5, .cls-6 {
        stroke: #2bc9e1;
        stroke-width: 0.5px;
      }

      .cls-6 {
        fill: rgba(43,209,228,0.38);
      }

      .cls-10, .cls-11, .cls-12, .cls-7, .cls-8, .cls-9 {
        fill: #2bc9e1;
      }

      .cls-8 {
        opacity: 0.797;
      }

      .cls-9 {
        opacity: 0.599;
      }

      .cls-10 {
        opacity: 0.397;
      }

      .cls-11 {
        opacity: 0.199;
      }

      .cls-12 {
        opacity: 0.099;
      }
    </style>
    <linearGradient id="linear-gradient" y1="0.452" x2="1" y2="0.44" gradientUnits="objectBoundingBox">
      <stop offset="0" stop-color="#2cd8e6"/>
      <stop offset="1" stop-color="#2b6dc4" stop-opacity="0.18"/>
    </linearGradient>
  </defs>
  <g id="图层开关" transform="translate(-444 -991.105)">
    <rect id="Rectangle_1854" data-name="Rectangle 1854" class="cls-1" width="90" height="23" transform="translate(446 994)"/>
    <rect id="Rectangle_1855" data-name="Rectangle 1855" class="cls-2" width="1" height="1" transform="translate(444 992)"/>
    <rect id="Rectangle_1856" data-name="Rectangle 1856" class="cls-3" width="1" height="1" transform="translate(444 1018)"/>
    <path id="Path_2541" data-name="Path 2541" class="cls-4" d="M0-.442v23" transform="translate(444.5 994.5)"/>
    <path id="Path_2539" data-name="Path 2539" class="cls-5" d="M-.475.021,58,0" transform="translate(446.5 1018.5)"/>
    <path id="Path_2540" data-name="Path 2540" class="cls-6" d="M-.517,0l18.5,0,1.264-1.142,50.482.036L70.852.032,89.483.006" transform="translate(446.5 992.5)"/>
    <path id="Path_2542" data-name="Path 2542" class="cls-7" d="M0,0H4L5,1H1Z" transform="translate(505 1018)"/>
    <path id="Path_2543" data-name="Path 2543" class="cls-8" d="M0,0H4L5,1H1Z" transform="translate(510 1018)"/>
    <path id="Path_2544" data-name="Path 2544" class="cls-9" d="M0,0H4L5,1H1Z" transform="translate(515 1018)"/>
    <path id="Path_2548" data-name="Path 2548" class="cls-9" d="M0,0H4L5,1H1Z" transform="translate(537.631 997.501) rotate(90)"/>
    <path id="Path_2545" data-name="Path 2545" class="cls-10" d="M0,0H4L5,1H1Z" transform="translate(520 1018)"/>
    <path id="Path_2549" data-name="Path 2549" class="cls-10" d="M0,0H4L5,1H1Z" transform="translate(537.544 1002.5) rotate(90)"/>
    <path id="Path_2546" data-name="Path 2546" class="cls-11" d="M0,0H4L5,1H1Z" transform="translate(525 1018)"/>
    <path id="Path_2550" data-name="Path 2550" class="cls-11" d="M0,0H4L5,1H1Z" transform="translate(537.456 1007.5) rotate(90)"/>
    <path id="Path_2547" data-name="Path 2547" class="cls-12" d="M0,0H4L5,1H1Z" transform="translate(530 1018)"/>
    <path id="Path_2551" data-name="Path 2551" class="cls-12" d="M0,0H4L5,1H1Z" transform="translate(537.369 1012.499) rotate(90)"/>
  </g>
</svg>
