<svg xmlns="http://www.w3.org/2000/svg" viewBox="0 0 17 17.004">
  <defs>
    <style>
      .cls-1 {
        fill: #fff;
      }
    </style>
  </defs>
  <path id="导出" class="cls-1" d="M67.017,78.964a1.088,1.088,0,0,1-1.088-1.086V65.895a1.088,1.088,0,0,1,1.088-1.086h2.538a.958.958,0,0,1,.632,1.68l-.339.3H67.907V76.955H78.667V74.579l.258-.184a1.079,1.079,0,0,1,.63-.2,1.09,1.09,0,0,1,1.09,1.088v2.6a1.088,1.088,0,0,1-1.088,1.086H67.017Zm9.537-9.008c-.617.005-1.164.027-1.625.064-.137.011-.237.017-.326.022a3.485,3.485,0,0,0-.859.146A6.455,6.455,0,0,0,71.87,71c-.115.073-.25.155-.392.242a8.19,8.19,0,0,0-1.8,1.322.524.524,0,0,1-.42.217.556.556,0,0,1-.125-.015.468.468,0,0,1-.376-.483v-.029l.006-.029a14.578,14.578,0,0,1,.933-3.061,7.769,7.769,0,0,1,1.482-2.2,5.436,5.436,0,0,1,2.346-1.4,11.059,11.059,0,0,1,3.029-.425V61.96l6.376,5.582-6.376,5.582Z" transform="translate(-65.929 -61.96)"/>
</svg>
