<svg xmlns="http://www.w3.org/2000/svg" viewBox="0 0 18 18">
  <defs>
    <style>
      .cls-1 {
        fill: none;
        stroke: #31f1fe;
        stroke-miterlimit: 10;
        stroke-width: 0.5px;
        opacity: 0.5;
      }

      .cls-2 {
        fill: #b5e1ea;
      }
    </style>
  </defs>
  <g id="Group_2515" data-name="Group 2515" transform="translate(-293.45 -30.45)">
    <rect id="Rectangle_1893" data-name="Rectangle 1893" class="cls-1" width="17.5" height="17.5" transform="translate(293.7 30.7)"/>
    <path id="轨迹" class="cls-2" d="M6.068,4.843A1.462,1.462,0,0,0,7.577,3.437,1.462,1.462,0,0,0,6.068,2.03,1.462,1.462,0,0,0,4.56,3.437,1.462,1.462,0,0,0,6.069,4.843Zm0-2.123a.725.725,0,1,1-.757.724A.741.741,0,0,1,6.068,2.721Zm-1.46,4.25a7.647,7.647,0,0,0,1.1,1.076l.358.274.356-.276a7.932,7.932,0,0,0,1.1-1.08A8.741,8.741,0,0,0,9.364,3.591a3.115,3.115,0,0,0,.04-.435A3.016,3.016,0,0,0,8.408.9,3.478,3.478,0,0,0,3.735.9a3.041,3.041,0,0,0-1,2.271,3.121,3.121,0,0,0,.039.42A8.89,8.89,0,0,0,4.608,6.971ZM6.068.887A2.424,2.424,0,0,1,8.559,3.259a2.358,2.358,0,0,1-.03.316A7.55,7.55,0,0,1,6.965,6.415a.1.1,0,0,1-.02.023,6.6,6.6,0,0,1-.877.851,6.423,6.423,0,0,1-.877-.846.1.1,0,0,1-.019-.024A7.5,7.5,0,0,1,3.608,3.584a2.3,2.3,0,0,1-.03-.316A2.432,2.432,0,0,1,6.068.887ZM2.472,11.2h8.234A1.238,1.238,0,0,0,12,10.025a1.238,1.238,0,0,0-1.3-1.173H1.3a.433.433,0,0,1-.469-.384A.434.434,0,0,1,1.3,8.084h1.47a.394.394,0,1,0,0-.788H1.3A1.238,1.238,0,0,0,0,8.469,1.238,1.238,0,0,0,1.3,9.641h9.41a.392.392,0,1,1,0,.768H2.471a.395.395,0,1,0,0,.789Z" transform="translate(296.5 34.304)"/>
  </g>
</svg>
