<svg xmlns="http://www.w3.org/2000/svg" viewBox="0 0 8 10.999">
  <defs>
    <style>
      .cls-1 {
        fill: #b5e1ea;
      }
    </style>
  </defs>
  <path id="定位_1_" data-name="定位 (1)" class="cls-1" d="M351.773,157.821c-1.991,0-4-.519-4-1.678,0-.905,1.376-1.467,2.654-1.6l.07-.008-1.767-2.719a3.38,3.38,0,0,1-.158-.308l-.047-.09-.007-.036a3.208,3.208,0,0,1-.234-1.2,3.492,3.492,0,0,1,6.978,0,3.2,3.2,0,0,1-.235,1.2l-.023.058h0l-.018.035a3.4,3.4,0,0,1-.169.331l-3.049,4.862-.722-1.134-.027,0a4.412,4.412,0,0,0-2.111.579l-.034.032.035.031a5.136,5.136,0,0,0,2.792.6h.139a5.164,5.164,0,0,0,2.793-.6l.037-.032-.037-.031a3.757,3.757,0,0,0-1.463-.5l.615-.945c1.282.278,1.987.8,1.987,1.478,0,1.159-2.009,1.678-4,1.678Zm0-9.455a1.43,1.43,0,1,0,1.489,1.43,1.461,1.461,0,0,0-1.489-1.43Z" transform="translate(-347.773 -146.822)"/>
</svg>
