<?xml version="1.0" encoding="UTF-8"?>
<svg width="467px" height="153px" viewBox="0 0 467 153" version="1.1" xmlns="http://www.w3.org/2000/svg" xmlns:xlink="http://www.w3.org/1999/xlink">
    <!-- Generator: Sketch 51.3 (57544) - http://www.bohemiancoding.com/sketch -->
    <title>Group 29</title>
    <desc>Created with Sketch.</desc>
    <defs>
        <path d="M474.083105,95.5692684 C477.357945,93.5146819 481.678299,94.503893 483.732886,97.7787332 C485.787472,101.053573 484.798261,105.373927 481.523421,107.428514 C385.480924,167.684161 308.825366,173.947043 251.376595,153.31434 C232.653939,146.590106 212.449119,135.663997 189.499975,120.428917 C175.189667,110.928837 160.55927,100.305046 141.544817,85.841541 C136.425236,81.9472887 112.556694,63.6115742 106.198826,58.7944531 C93.1570848,48.9132101 83.0796728,41.5894413 73.9002985,35.424956 C52.1473356,20.8165724 36.4017907,27.5881134 25.5373849,27.5881134 C21.6713917,27.5881134 18.5373849,24.4541066 18.5373849,20.5881134 C18.5373849,16.7221201 21.6713917,13.5881134 25.5373849,13.5881134 C40.0441568,13.5881134 57.7566218,7.71954544 81.7054167,23.8025582 C91.146549,30.1428294 101.417841,37.6075007 114.653451,47.635631 C121.057819,52.4879825 144.940626,70.8346562 150.020633,74.6988058 C168.816912,88.9963546 183.230053,99.4623868 197.243121,108.76514 C219.332277,123.429306 238.607854,133.852911 256.108747,140.138349 C308.600148,158.990615 381.318318,153.768529 474.083105,95.5692684 Z" id="path-1"></path>
        <filter x="-1.5%" y="-4.6%" width="103.0%" height="109.2%" filterUnits="objectBoundingBox" id="filter-2">
            <feMorphology radius="2" operator="erode" in="SourceAlpha" result="shadowSpreadInner1"></feMorphology>
            <feGaussianBlur stdDeviation="5.5" in="shadowSpreadInner1" result="shadowBlurInner1"></feGaussianBlur>
            <feOffset dx="0" dy="1" in="shadowBlurInner1" result="shadowOffsetInner1"></feOffset>
            <feComposite in="shadowOffsetInner1" in2="SourceAlpha" operator="arithmetic" k2="-1" k3="1" result="shadowInnerInner1"></feComposite>
            <feColorMatrix values="0 0 0 0 0   0 0 0 0 0.262745098   0 0 0 0 1  0 0 0 0.984941123 0" type="matrix" in="shadowInnerInner1"></feColorMatrix>
        </filter>
    </defs>
    <g id="Page-1" stroke="none" stroke-width="1" fill="none" fill-rule="evenodd" opacity="0.3">
        <g id="态势分析" transform="translate(-953.000000, -456.000000)" fill-rule="nonzero">
            <g id="内容" transform="translate(18.000000, -183.000000)">
                <g id="中间背景" transform="translate(317.000000, 111.000000)">
                    <g id="传输管" transform="translate(0.000000, 342.000000)">
                        <g id="Group-29" transform="translate(859.303263, 292.237817) scale(-1, 1) translate(-859.303263, -292.237817) translate(615.803263, 160.237817)">
                            <g id="Group-47" transform="translate(0.000000, 14.000000)">
                                <g id="Path-6">
                                    <use fill-opacity="0" fill="#01A9FE" xlink:href="#path-1"></use>
                                    <use fill="black" fill-opacity="1" filter="url(#filter-2)" xlink:href="#path-1"></use>
                                </g>
                            </g>
                        </g>
                    </g>
                </g>
            </g>
        </g>
    </g>
</svg>