<?xml version="1.0" encoding="UTF-8"?>
<svg width="446px" height="384px" viewBox="0 0 446 384" version="1.1" xmlns="http://www.w3.org/2000/svg" xmlns:xlink="http://www.w3.org/1999/xlink">
    <!-- Generator: Sketch 51.3 (57544) - http://www.bohemiancoding.com/sketch -->
    <title>Group 30</title>
    <desc>Created with Sketch.</desc>
    <defs>
        <path d="M472.895513,58.3350292 C474.287379,54.7282836 478.339554,52.9327687 481.946299,54.3246344 C485.553045,55.7165001 487.34856,59.7686752 485.956694,63.3754208 C465.075738,117.484301 422.457293,159.866798 358.484407,190.445033 C339.001514,199.757611 319.593275,216.629742 296.255562,243.205771 C288.672876,251.840623 280.838563,261.274129 270.674914,273.894052 C268.059739,277.141242 249.742702,300.064512 244.243057,306.854371 C210.620702,348.36452 186.038203,374.388078 157.945519,395.435336 C121.992144,422.371885 89.5074073,436.553533 47.8773471,436.553533 C44.0113539,436.553533 40.8773471,433.419526 40.8773471,429.553533 C40.8773471,425.68754 44.0113539,422.553533 47.8773471,422.553533 C86.2618059,422.553533 115.883817,409.454944 149.551201,384.231077 C176.492556,364.046403 200.414426,338.722201 233.364052,298.042604 C238.827988,291.29683 257.128133,268.3947 259.771346,265.112695 C270.049013,252.351201 277.998387,242.779146 285.735922,233.96796 C310.214824,206.09239 330.89298,188.116284 352.446841,177.813809 C413.361416,148.697409 453.38329,108.897108 472.895513,58.3350292 Z" id="path-1"></path>
        <filter x="-1.6%" y="-1.8%" width="103.1%" height="103.7%" filterUnits="objectBoundingBox" id="filter-2">
            <feMorphology radius="2" operator="erode" in="SourceAlpha" result="shadowSpreadInner1"></feMorphology>
            <feGaussianBlur stdDeviation="5.5" in="shadowSpreadInner1" result="shadowBlurInner1"></feGaussianBlur>
            <feOffset dx="0" dy="1" in="shadowBlurInner1" result="shadowOffsetInner1"></feOffset>
            <feComposite in="shadowOffsetInner1" in2="SourceAlpha" operator="arithmetic" k2="-1" k3="1" result="shadowInnerInner1"></feComposite>
            <feColorMatrix values="0 0 0 0 0   0 0 0 0 0.262745098   0 0 0 0 1  0 0 0 0.984941123 0" type="matrix" in="shadowInnerInner1"></feColorMatrix>
        </filter>
    </defs>
    <g id="Page-1" stroke="none" stroke-width="1" fill="none" fill-rule="evenodd" opacity="0.4">
        <g id="态势分析" transform="translate(-521.000000, -540.000000)" fill-rule="nonzero">
            <g id="内容" transform="translate(18.000000, -183.000000)">
                <g id="中间背景" transform="translate(317.000000, 111.000000)">
                    <g id="传输管" transform="translate(0.000000, 342.000000)">
                        <g id="Group-30" transform="translate(145.573896, 216.777778)">
                            <g id="Group-62">
                                <g id="Path-5">
                                    <use fill-opacity="0" fill="#01A9FE" xlink:href="#path-1"></use>
                                    <use fill="black" fill-opacity="1" filter="url(#filter-2)" xlink:href="#path-1"></use>
                                </g>
                            </g>
                        </g>
                    </g>
                </g>
            </g>
        </g>
    </g>
</svg>