<?xml version="1.0" encoding="UTF-8"?>
<svg width="441px" height="272px" viewBox="0 0 441 272" version="1.1" xmlns="http://www.w3.org/2000/svg" xmlns:xlink="http://www.w3.org/1999/xlink">
    <!-- Generator: Sketch 51.3 (57544) - http://www.bohemiancoding.com/sketch -->
    <title>Group 29</title>
    <desc>Created with Sketch.</desc>
    <defs>
        <path d="M127.525939,108.952833 C127.784232,109.208958 128.038695,109.461242 128.28956,109.709913 C128.180316,109.601667 127.93447,109.357935 127.525939,108.952833 Z M128.28956,109.709913 C132.289195,113.674575 135.373897,116.72057 138.473459,119.761316 C156.997141,137.9335 172.1518,151.994085 188.407939,165.712271 C216.51,189.426962 245.045264,209.456268 276.142336,226.431037 C364.189636,274.49288 429.739735,273.418862 474.654321,224.451547 C477.267549,221.602522 481.69558,221.411371 484.544605,224.024599 C487.39363,226.637828 487.584781,231.065858 484.971553,233.914883 C435.02679,288.366257 362.560553,289.553595 269.43453,238.71946 C237.459103,221.265229 208.162949,200.701843 179.37895,176.41168 C162.814468,162.43329 147.42146,148.151564 128.669238,129.755176 C125.547616,126.692789 122.445281,123.629369 118.426203,119.64542 C119.421931,120.632066 109.430328,110.721004 107.245001,108.560145 C99.1684081,100.57398 93.4104325,94.9857841 87.9610842,89.8924162 C60.7405271,64.4500506 43.4989967,54.3846015 27.6721941,56.0480655 C23.8273792,56.4521719 20.3829479,53.6629264 19.9788416,49.8181115 C19.5747352,45.9732966 22.3639807,42.5288653 26.2087956,42.124759 C37.7163624,40.915265 49.3080533,44.1215783 61.7777623,51.4012812 C72.2707811,57.5270104 83.3913161,66.4579526 97.5208694,79.6644884 C103.08628,84.8663368 108.926435,90.5342889 117.088609,98.6050775 C119.28024,100.77217 129.268405,110.679812 128.28956,109.709913 Z M117.668259,118.893967 C117.924576,119.148132 118.177149,119.398543 118.426203,119.64542 C118.316172,119.536393 118.071977,119.294296 117.668259,118.893967 Z" id="path-1"></path>
        <filter x="-1.5%" y="-3.0%" width="103.0%" height="106.0%" filterUnits="objectBoundingBox" id="filter-2">
            <feMorphology radius="2" operator="erode" in="SourceAlpha" result="shadowSpreadInner1"></feMorphology>
            <feGaussianBlur stdDeviation="5.5" in="shadowSpreadInner1" result="shadowBlurInner1"></feGaussianBlur>
            <feOffset dx="0" dy="1" in="shadowBlurInner1" result="shadowOffsetInner1"></feOffset>
            <feComposite in="shadowOffsetInner1" in2="SourceAlpha" operator="arithmetic" k2="-1" k3="1" result="shadowInnerInner1"></feComposite>
            <feColorMatrix values="0 0 0 0 0   0 0 0 0 0.26341712   0 0 0 0 1  0 0 0 0.984941123 0" type="matrix" in="shadowInnerInner1"></feColorMatrix>
        </filter>
    </defs>
    <g id="Page-1" stroke="none" stroke-width="1" fill="none" fill-rule="evenodd" opacity="0.4">
        <g id="态势分析" transform="translate(-521.000000, -315.000000)" fill-rule="nonzero">
            <g id="内容" transform="translate(18.000000, -183.000000)">
                <g id="中间背景" transform="translate(317.000000, 111.000000)">
                    <g id="传输管" transform="translate(0.000000, 342.000000)">
                        <g id="Group-29" transform="translate(396.742847, 189.466885) rotate(6.000000) translate(-396.742847, -189.466885) translate(153.242847, 24.966885)">
                            <g id="Group-63">
                                <g id="Path-3">
                                    <use fill-opacity="0" fill="#01A9FE" xlink:href="#path-1"></use>
                                    <use fill="black" fill-opacity="1" filter="url(#filter-2)" xlink:href="#path-1"></use>
                                </g>
                            </g>
                        </g>
                    </g>
                </g>
            </g>
        </g>
    </g>
</svg>