<?xml version="1.0" encoding="UTF-8"?>
<svg width="154px" height="153px" viewBox="0 0 154 153" version="1.1" xmlns="http://www.w3.org/2000/svg" xmlns:xlink="http://www.w3.org/1999/xlink">
    <!-- Generator: Sketch 51.3 (57544) - http://www.bohemiancoding.com/sketch -->
    <title>Group 40 Copy 8</title>
    <desc>Created with Sketch.</desc>
    <defs></defs>
    <g id="Page-1" stroke="none" stroke-width="1" fill="none" fill-rule="evenodd">
        <g id="态势分析" transform="translate(-1086.000000, -240.000000)">
            <g id="内容" transform="translate(18.000000, -183.000000)">
                <g id="中间1" transform="translate(1044.000000, 399.000000)">
                    <g id="Group-40-Copy-8">
                        <circle id="Oval-12-Copy" fill="#171C6E" cx="101.500007" cy="101.500007" r="49.9088432"></circle>
                        <path d="M101.21962,155.321212 C131.099104,155.321212 155.321212,131.099104 155.321212,101.21962 C155.321212,71.3401359 131.099104,47.1180281 101.21962,47.1180281 C71.3401359,47.1180281 47.1180281,71.3401359 47.1180281,101.21962 C47.1180281,131.099104 71.3401359,155.321212 101.21962,155.321212 Z" id="Oval-12-Copy" stroke="#336CFF" stroke-width="2.80000023" stroke-dasharray="0.7000000476837158,1.120000092983247"></path>
                        <path d="M101.500007,164.306641 C136.187153,164.306641 164.306641,136.187153 164.306641,101.500007 C164.306641,66.8128607 136.187153,38.6933728 101.500007,38.6933728 C66.8128607,38.6933728 38.6933728,66.8128607 38.6933728,101.500007 C38.6933728,136.187153 66.8128607,164.306641 101.500007,164.306641 Z" id="Oval-12-Copy" stroke="#2A58D9" stroke-width="8.96000074" stroke-dasharray="12.32000110626223,1.680000181198125" transform="translate(101.500007, 101.500007) rotate(-125.000000) translate(-101.500007, -101.500007) "></path>
                        <circle id="Oval-12-Copy" stroke="#336CFF" stroke-width="3.64000025" transform="translate(101.500007, 101.500007) rotate(-125.000000) translate(-101.500007, -101.500007) " cx="101.500007" cy="101.500007" r="60.1516616"></circle>
                        <path d="M101.500007,175.522111 C142.381286,175.522111 175.522111,142.381286 175.522111,101.500007 C175.522111,60.6187275 142.381286,27.4779024 101.500007,27.4779024 C60.6187275,27.4779024 27.4779024,60.6187275 27.4779024,101.500007 C27.4779024,142.381286 60.6187275,175.522111 101.500007,175.522111 Z" id="Oval-12-Copy" stroke="#0093FF" stroke-width="0.560000046" opacity="0.751249875" stroke-dasharray="218.4000148773193,33.60000228881836"></path>
                        <path d="M101.500007,27.4779024 C80.2404892,27.4779024 61.060256,35.9286712 47.4838766,49.484474 M27.4779024,101.500007 C27.4779024,121.568854 35.064064,139.838852 47.4838766,153.51554 M101.500007,175.522111 C123.007151,175.522111 142.313525,165.464132 155.516137,149.514345 M175.522111,101.500007 C175.522111,81.185288 167.111962,62.7943283 153.51554,49.484474" id="Oval-12-Copy" stroke="#01CFF4" stroke-width="4.3400003" stroke-dasharray="1.400000095367432,1.400000095367432" transform="translate(101.500007, 101.500007) rotate(-330.000000) translate(-101.500007, -101.500007) "></path>
                    </g>
                </g>
            </g>
        </g>
    </g>
</svg>