<?xml version="1.0" encoding="UTF-8"?>
<svg width="136px" height="136px" viewBox="0 0 136 136" version="1.1" xmlns="http://www.w3.org/2000/svg" xmlns:xlink="http://www.w3.org/1999/xlink">
    <!-- Generator: Sketch 51.3 (57544) - http://www.bohemiancoding.com/sketch -->
    <title>Group 28 Copy</title>
    <desc>Created with Sketch.</desc>
    <defs></defs>
    <g id="Page-1" stroke="none" stroke-width="1" fill="none" fill-rule="evenodd">
        <g id="态势分析" transform="translate(-1439.000000, -400.000000)">
            <g id="内容" transform="translate(18.000000, -183.000000)">
                <g id="设背感知" transform="translate(1382.000000, 281.000000)">
                    <g id="设备总数" transform="translate(34.000000, 302.000000)">
                        <g id="Group-28-Copy">
                            <g id="Group-28" transform="translate(6.000000, 0.000000)">
                                <path d="M64.7999987,124.559998 C34.9766228,124.559998 10.7999998,100.383374 10.7999998,70.5599986 C10.7999998,40.7366227 34.9766228,16.5599997 64.7999987,16.5599997 C94.6233746,16.5599997 118.799998,40.7366227 118.799998,70.5599986 C118.799998,100.383374 94.6233746,124.559998 64.7999987,124.559998 Z M64.7999987,118.079998 C91.0445695,118.079998 112.319998,96.8045694 112.319998,70.5599986 C112.319998,44.3154278 91.0445695,23.0399995 64.7999987,23.0399995 C38.5554279,23.0399995 17.2799997,44.3154278 17.2799997,70.5599986 C17.2799997,96.8045694 38.5554279,118.079998 64.7999987,118.079998 Z" id="Combined-Shape-Copy" fill="#4AD3FF"></path>
                                <path d="M64.4399987,134.639997 C100.029227,134.639997 128.879997,105.789227 128.879997,70.1999986 C128.879997,34.61077 100.029227,5.75999989 64.4399987,5.75999989 C28.8507701,5.75999989 0,34.61077 0,70.1999986 C0,105.789227 28.8507701,134.639997 64.4399987,134.639997 Z" id="Oval-10-Copy" stroke="#3F42AF" stroke-width="1.43999997" stroke-dasharray="4.320000057220454"></path>
                                <path d="M8.75999989,109.52 C11.94116,109.52 14.5199998,106.94116 14.5199998,103.76 C14.5199998,100.57884 11.94116,98 8.75999989,98 C5.57883979,98 3,100.57884 3,103.76 C3,106.94116 5.57883979,109.52 8.75999989,109.52 Z" id="Oval-6-Copy-3" fill="#FF8873"></path>
                                <path d="M44.6399991,11.5199998 C47.8211592,11.5199998 50.399999,8.94115998 50.399999,5.75999989 C50.399999,2.57883979 47.8211592,0 44.6399991,0 C41.458839,0 38.8799992,2.57883979 38.8799992,5.75999989 C38.8799992,8.94115998 41.458839,11.5199998 44.6399991,11.5199998 Z" id="Oval-6-Copy-5" fill="#7783FF"></path>
                                <path d="M128.879997,89.2799982 C132.061158,89.2799982 134.639997,86.7011584 134.639997,83.5199983 C134.639997,80.3388382 132.061158,77.7599985 128.879997,77.7599985 C125.698837,77.7599985 123.119998,80.3388382 123.119998,83.5199983 C123.119998,86.7011584 125.698837,89.2799982 128.879997,89.2799982 Z" id="Oval-6-Copy-6" fill="#81E296"></path>
                                <text id="28888" font-family="DIN-Medium, DIN" font-size="28" font-weight="400" fill="#FFFFFF">
                                    <tspan x="27.4899987" y="78.4399989">28888</tspan>
                                </text>
                            </g>
                        </g>
                    </g>
                </g>
            </g>
        </g>
    </g>
</svg>