<?xml version="1.0" encoding="UTF-8"?>
<svg width="144px" height="46px" viewBox="0 0 144 46" version="1.1" xmlns="http://www.w3.org/2000/svg" xmlns:xlink="http://www.w3.org/1999/xlink">
    <!-- Generator: Sketch 51.3 (57544) - http://www.bohemiancoding.com/sketch -->
    <title>Group 4 Copy</title>
    <desc>Created with Sketch.</desc>
    <defs></defs>
    <g id="Page-1" stroke="none" stroke-width="1" fill="none" fill-rule="evenodd">
        <g id="态势分析" transform="translate(-363.000000, -19.000000)">
            <g id="内容" transform="translate(18.000000, -183.000000)">
                <g id="导航" transform="translate(345.000000, 183.000000)">
                    <g id="态势分析" transform="translate(0.000000, 19.000000)">
                        <g id="Group-4-Copy">
                            <path d="M141.03555,14.5560904 L143.777877,15.9829325 C144.037278,16.1178998 144.20001,16.3860116 144.20001,16.6784241 L144.20001,29.6313206 C144.20001,29.9237331 144.037278,30.1918449 143.777877,30.3268122 L141.03555,31.7536544 C140.651441,31.9535078 140.178045,31.8041389 139.978192,31.4200295 C139.920043,31.3082705 139.889683,31.1841443 139.889683,31.0581628 L139.889683,15.251582 C139.889683,14.8185907 140.240692,14.4675819 140.673683,14.4675819 C140.799665,14.4675819 140.923791,14.4979418 141.03555,14.5560904 Z" id="Rectangle" fill="#52D4FF"></path>
                            <path d="M1.1458668,14.5560904 L3.88819308,15.9829325 C4.1475941,16.1178998 4.31032638,16.3860116 4.31032638,16.6784241 L4.31032638,29.6313206 C4.31032638,29.9237331 4.1475941,30.1918449 3.88819308,30.3268122 L1.1458668,31.7536544 C0.761757409,31.9535078 0.28836196,31.8041389 0.0885084725,31.4200295 C0.0303598571,31.3082705 3.23943381e-15,31.1841443 2.66453526e-15,31.0581628 L1.33226763e-15,15.251582 C1.27924149e-15,14.8185907 0.35100878,14.4675819 0.784000053,14.4675819 C0.909981558,14.4675819 1.03410779,14.4979418 1.1458668,14.5560904 Z" id="Rectangle-Copy" fill="#52D4FF" transform="translate(2.155163, 23.154955) scale(-1, 1) translate(-2.155163, -23.154955) "></path>
                            <polygon id="Rectangle-10-Copy-29" fill="#171C6E" opacity="0.204743304" points="7.59139507 7.32942959e-17 135.579357 0 144.20001 8.32406118 144.20001 12.5353964 140.281531 15.5286122 140.281531 31.1390552 144.20001 34.2592642 144.20001 38.4294718 135.123967 46.2000031 7.59139507 46.2000031 0 38.4294718 0 34.2592642 3.91847853 31.1390552 3.91847853 15.5286122 0 12.5353964 0 8.32406118"></polygon>
                            <polygon id="Rectangle-10-Copy-29" fill="#5564FF" points="7.59139507 7.32942959e-17 135.579357 0 144.20001 8.32406118 144.20001 12.5353964 140.281531 15.5286122 140.281531 31.1390552 144.20001 34.2592642 144.20001 38.4294718 135.123967 46.2000031 7.59139507 46.2000031 0 38.4294718 0 34.2592642 3.91847853 31.1390552 3.91847853 15.5286122 0 12.5353964 0 8.32406118"></polygon>
                        </g>
                    </g>
                </g>
            </g>
        </g>
    </g>
</svg>