<?xml version="1.0" encoding="UTF-8"?>
<svg width="540px" height="82px" viewBox="0 0 540 82" version="1.1" xmlns="http://www.w3.org/2000/svg" xmlns:xlink="http://www.w3.org/1999/xlink">
    <!-- Generator: Sketch 51.3 (57544) - http://www.bohemiancoding.com/sketch -->
    <title>Group 2</title>
    <desc>Created with Sketch.</desc>
    <defs>
        <polygon id="path-1" points="55.2299466 0 86.8669775 0 99.5547078 7.00854701 438.426532 7.00854701 449.178771 0 482.942346 0 498.250497 16.2447283 540 66.5811966 523.883188 82 13.4804435 82 0 69.8351009 41.749503 13.3038851"></polygon>
        <filter x="-1.8%" y="-11.6%" width="103.5%" height="123.2%" filterUnits="objectBoundingBox" id="filter-2">
            <feMorphology radius="6" operator="erode" in="SourceAlpha" result="shadowSpreadInner1"></feMorphology>
            <feGaussianBlur stdDeviation="6" in="shadowSpreadInner1" result="shadowBlurInner1"></feGaussianBlur>
            <feOffset dx="0" dy="1" in="shadowBlurInner1" result="shadowOffsetInner1"></feOffset>
            <feComposite in="shadowOffsetInner1" in2="SourceAlpha" operator="arithmetic" k2="-1" k3="1" result="shadowInnerInner1"></feComposite>
            <feColorMatrix values="0 0 0 0 0   0 0 0 0 0.305882353   0 0 0 0 1  0 0 0 1 0" type="matrix" in="shadowInnerInner1"></feColorMatrix>
        </filter>
    </defs>
    <g id="Page-1" stroke="none" stroke-width="1" fill="none" fill-rule="evenodd">
        <g id="态势分析" transform="translate(-693.000000, 0.000000)">
            <g id="内容" transform="translate(18.000000, -183.000000)">
                <g id="导航" transform="translate(345.000000, 183.000000)">
                    <g id="title" transform="translate(330.000022, 0.000000)">
                        <g id="Group-2" transform="translate(270.000000, 41.000000) scale(1, -1) translate(-270.000000, -41.000000) ">
                            <path d="M79.6000004,1 L460.140228,1 C460.511531,1 460.867626,1.14749959 461.130177,1.41005053 L465.330177,5.61005082 C465.876912,6.15678487 465.876912,7.0432159 465.330177,7.58994994 C465.067627,7.85250089 464.711531,8.00000048 464.340228,8.00000048 L75.4000001,8.00000048 C74.6268014,8.00000048 74,7.37319908 74,6.60000038 C74,6.22869727 74.1474996,5.87260177 74.4100505,5.61005082 L78.6100508,1.41005053 C78.8726018,1.14749959 79.2286973,1 79.6000004,1 Z" id="Rectangle-2-Copy" fill="#39C7FF"></path>
                            <g id="Rectangle-10-Copy-29">
                                <use fill="#0F256B" fill-rule="evenodd" xlink:href="#path-1"></use>
                                <use fill="black" fill-opacity="1" filter="url(#filter-2)" xlink:href="#path-1"></use>
                            </g>
                        </g>
                    </g>
                </g>
            </g>
        </g>
    </g>
</svg>