<?xml version="1.0" encoding="UTF-8"?>
<svg width="411px" height="112px" viewBox="0 0 411 112" version="1.1" xmlns="http://www.w3.org/2000/svg" xmlns:xlink="http://www.w3.org/1999/xlink">
    <!-- Generator: Sketch 51.3 (57544) - http://www.bohemiancoding.com/sketch -->
    <title>中间背景</title>
    <desc>Created with Sketch.</desc>
    <defs></defs>
    <g id="Page-1" stroke="none" stroke-width="1" fill="none" fill-rule="evenodd" opacity="0.542410714">
        <g id="态势分析" transform="translate(-546.000000, -504.000000)" fill="#2FE2FF" fill-rule="nonzero">
            <g id="内容" transform="translate(18.000000, -183.000000)">
                <g id="中间背景" transform="translate(317.000000, 111.000000)">
                    <g id="电路-左" transform="translate(417.000000, 632.000000) scale(-1, 1) rotate(-90.000000) translate(-417.000000, -632.000000) translate(360.000000, 426.000000)">
                        <path id="Path-15" d="M2.51760564,384.151356 C3.88027444,385.522344 6.09634158,385.529089 7.46733013,384.16642 C8.83831867,382.803751 8.84506316,380.587684 7.48239436,379.216696 C6.11972556,377.845707 3.90365842,377.838963 2.53266987,379.201631 C1.16168133,380.5643 1.15493684,382.780367 2.51760564,384.151356 Z M46.9925847,1 L46.9925847,339.64809 L47.0810992,339.435313 L7.05723377,379.216297 L7.48020463,379.641851 L47.5040701,339.860866 L47.5925846,339.772889 L47.5925846,339.64809 L47.5925846,1 L46.9925847,1 Z"></path>
                        <path id="Path-19" d="M27.7389558,278.874143 C29.6719524,278.874143 31.2389557,277.30714 31.2389557,275.374143 C31.2389557,273.441146 29.6719524,271.874143 27.7389558,271.874143 C25.8059592,271.874143 24.2389559,273.441146 24.2389559,275.374143 C24.2389559,277.30714 25.8059592,278.874143 27.7389558,278.874143 Z M27.4389558,1 L27.4389558,272.174143 L28.0389558,272.174143 L28.0389558,1 L27.4389558,1 Z"></path>
                        <path id="Path-20" d="M65.437751,411.415752 C67.3707476,411.415752 68.9377509,409.848749 68.9377509,407.915752 C68.9377509,405.982756 67.3707476,404.415752 65.437751,404.415752 C63.5047544,404.415752 61.9377511,405.982756 61.9377511,407.915752 C61.9377511,409.848749 63.5047544,411.415752 65.437751,411.415752 Z M65.137751,1 L65.137751,404.715752 L65.737751,404.715752 L65.737751,1 L65.137751,1 Z"></path>
                        <path id="Path-21" d="M96.2221028,343.493915 C97.5960634,342.134243 97.6076465,339.918196 96.2479744,338.544235 C94.8883023,337.170275 92.6722552,337.158692 91.2982946,338.518364 C89.924334,339.878036 89.9127509,342.094083 91.272423,343.468043 C92.6320951,344.842004 94.8481422,344.853587 96.2221028,343.493915 Z M69.326506,1 L69.326506,316.618831 L69.326506,316.742177 L69.4132681,316.829851 L91.2975942,338.944155 L91.72407,338.522114 L69.8397439,316.40781 L69.926506,316.618831 L69.926506,1 L69.326506,1 Z"></path>
                        <path id="Path-22" d="M108.826585,384.954841 C110.759581,384.954841 112.326585,383.387838 112.326585,381.454841 C112.326585,379.521845 110.759581,377.954841 108.826585,377.954841 C106.893588,377.954841 105.326585,379.521845 105.326585,381.454841 C105.326585,383.387838 106.893588,384.954841 108.826585,384.954841 Z M78.3024097,1 L78.3024097,254.455656 L78.3568975,254.628062 L108.581073,297.668366 L108.526585,297.49596 L108.526585,378.254841 L109.126585,378.254841 L109.126585,297.49596 L109.072097,297.323554 L78.8479218,254.28325 L78.9024096,254.455656 L78.9024096,1 L78.3024097,1 Z"></path>
                    </g>
                </g>
            </g>
        </g>
    </g>
</svg>