<?xml version="1.0" encoding="UTF-8"?>
<svg width="355px" height="384px" viewBox="0 0 355 384" version="1.1" xmlns="http://www.w3.org/2000/svg" xmlns:xlink="http://www.w3.org/1999/xlink">
    <!-- Generator: Sketch 51.3 (57544) - http://www.bohemiancoding.com/sketch -->
    <title>内容</title>
    <desc>Created with Sketch.</desc>
    <defs></defs>
    <g id="Page-1" stroke="none" stroke-width="1" fill="none" fill-rule="evenodd" opacity="0.5">
        <g id="态势分析" transform="translate(-786.000000, -589.000000)" fill="#2FE2FF" fill-rule="nonzero">
            <g id="内容" transform="translate(18.000000, -183.000000)">
                <g id="电路-下" transform="translate(768.000000, 761.000000)">
                    <path id="Path-15" d="M160.517849,386.146406 C161.880653,387.51726 164.096721,387.523786 165.467575,386.160981 C166.838429,384.798177 166.844955,382.582109 165.482151,381.211255 C164.119347,379.840401 161.903279,379.833876 160.532425,381.19668 C159.161571,382.559484 159.155045,384.775552 160.517849,386.146406 Z M204.992585,11 L204.992585,341.634596 L205.081078,341.42184 L165.057019,381.210871 L165.480032,381.636382 L205.504091,341.847352 L205.592585,341.759378 L205.592585,341.634596 L205.592585,11 L204.992585,11 Z"></path>
                    <path id="Path-18" d="M194.714859,322.123466 C196.647856,322.123466 198.214859,320.556463 198.214859,318.623466 C198.214859,316.69047 196.647856,315.123466 194.714859,315.123466 C192.781863,315.123466 191.21486,316.69047 191.21486,318.623466 C191.21486,320.556463 192.781863,322.123466 194.714859,322.123466 Z M194.414859,11 L194.414859,315.423466 L195.014859,315.423466 L195.014859,11 L194.414859,11 Z"></path>
                    <path id="Path-19" d="M185.738956,310.847961 C187.671952,310.847961 189.238956,309.280958 189.238956,307.347961 C189.238956,305.414964 187.671952,303.847961 185.738956,303.847961 C183.805959,303.847961 182.238956,305.414964 182.238956,307.347961 C182.238956,309.280958 183.805959,310.847961 185.738956,310.847961 Z M185.438956,11 L185.438956,304.147961 L186.038956,304.147961 L186.038956,11 L185.438956,11 Z"></path>
                    <path id="Path-20" d="M223.437751,373.415736 C225.370748,373.415736 226.937751,371.848732 226.937751,369.915736 C226.937751,367.982739 225.370748,366.415736 223.437751,366.415736 C221.504754,366.415736 219.937751,367.982739 219.937751,369.915736 C219.937751,371.848732 221.504754,373.415736 223.437751,373.415736 Z M223.137751,11 L223.137751,366.715736 L223.737751,366.715736 L223.737751,11 L223.137751,11 Z"></path>
                    <path id="Path-21" d="M254.221857,325.480933 C255.595952,324.121396 255.607754,321.90535 254.248217,320.531256 C252.888681,319.157161 250.672635,319.145359 249.29854,320.504895 C247.924445,321.864432 247.912644,324.080478 249.27218,325.454573 C250.631717,326.828667 252.847763,326.840469 254.221857,325.480933 Z M227.326506,11 L227.326506,298.600791 L227.326506,298.72412 L227.413247,298.81179 L249.297826,320.930715 L249.724343,320.508716 L227.839765,298.389792 L227.926506,298.600791 L227.926506,11 L227.326506,11 Z"></path>
                    <path id="Path-22" d="M266.826585,356.949601 C268.759581,356.949601 270.326585,355.382598 270.326585,353.449601 C270.326585,351.516604 268.759581,349.949601 266.826585,349.949601 C264.893588,349.949601 263.326585,351.516604 263.326585,353.449601 C263.326585,355.382598 264.893588,356.949601 266.826585,356.949601 Z M236.30241,11 L236.30241,256.425344 L236.356882,256.597728 L266.581057,299.646528 L266.526585,299.474145 L266.526585,350.249601 L267.126585,350.249601 L267.126585,299.474145 L267.072113,299.301762 L236.847938,256.252961 L236.90241,256.425344 L236.90241,11 L236.30241,11 Z"></path>
                    <path id="Path-23" d="M279.802425,375.338854 C281.735422,375.338854 283.302425,373.771851 283.302425,371.838854 C283.302425,369.905858 281.735422,368.338854 279.802425,368.338854 C277.869429,368.338854 276.302425,369.905858 276.302425,371.838854 C276.302425,373.771851 277.869429,375.338854 279.802425,375.338854 Z M248.868675,11 L248.868675,231.556607 L248.934706,231.744379 L279.568456,269.914755 L279.502425,269.726983 L279.502425,368.638854 L280.102425,368.638854 L280.102425,269.726983 L280.036394,269.53921 L249.402644,231.368834 L249.468675,231.556607 L249.468675,11 L248.868675,11 Z"></path>
                    <path id="Path-24" d="M311.423793,316.541284 C313.356789,316.541284 314.923793,314.974281 314.923793,313.041284 C314.923793,311.108287 313.356789,309.541284 311.423793,309.541284 C309.490796,309.541284 307.923793,311.108287 307.923793,313.041284 C307.923793,314.974281 309.490796,316.541284 311.423793,316.541284 Z M257.844578,11 L257.844578,225.640315 L257.913449,225.831572 L311.192664,290.217987 L311.123793,290.02673 L311.123793,309.841284 L311.723793,309.841284 L311.723793,290.02673 L311.654922,289.835473 L258.375707,225.449058 L258.444578,225.640315 L258.444578,11 L257.844578,11 Z"></path>
                    <path id="Path-24" d="M351.423793,332.541284 C353.356789,332.541284 354.923793,330.974281 354.923793,329.041284 C354.923793,327.108287 353.356789,325.541284 351.423793,325.541284 C349.490796,325.541284 347.923793,327.108287 347.923793,329.041284 C347.923793,330.974281 349.490796,332.541284 351.423793,332.541284 Z M277.844578,11 L277.844578,225.640315 L277.922872,225.84242 L351.202086,306.228834 L351.123793,306.02673 L351.123793,325.841284 L351.723793,325.841284 L351.723793,306.02673 L351.645499,305.824625 L278.366285,225.43821 L278.444578,225.640315 L278.444578,11 L277.844578,11 Z"></path>
                    <g transform="translate(95.000000, 210.500000) scale(-1, 1) translate(-95.000000, -210.500000) translate(3.000000, 11.000000)">
                        <path id="Path-15" d="M-2.48215083,375.146406 C-1.11934673,376.51726 1.09672106,376.523786 2.46757511,375.160981 C3.83842916,373.798177 3.84495494,371.582109 2.48215083,370.211255 C1.11934673,368.840401 -1.09672106,368.833876 -2.46757511,370.19668 C-3.83842916,371.559484 -3.84495494,373.775552 -2.48215083,375.146406 Z M41.9925847,0 L41.9925847,330.634596 L42.0810782,330.42184 L2.057019,370.210871 L2.48003186,370.636382 L42.5040911,330.847352 L42.5925846,330.759378 L42.5925846,330.634596 L42.5925846,0 L41.9925847,0 Z"></path>
                        <path id="Path-18" d="M31.7148594,311.123466 C33.647856,311.123466 35.2148593,309.556463 35.2148593,307.623466 C35.2148593,305.69047 33.647856,304.123466 31.7148594,304.123466 C29.7818629,304.123466 28.2148595,305.69047 28.2148595,307.623466 C28.2148595,309.556463 29.7818629,311.123466 31.7148594,311.123466 Z M31.4148595,0 L31.4148595,304.423466 L32.0148594,304.423466 L32.0148594,0 L31.4148595,0 Z"></path>
                        <path id="Path-19" d="M22.7389558,289.847961 C24.6719524,289.847961 26.2389557,288.280958 26.2389557,286.347961 C26.2389557,284.414964 24.6719524,282.847961 22.7389558,282.847961 C20.8059592,282.847961 19.2389559,284.414964 19.2389559,286.347961 C19.2389559,288.280958 20.8059592,289.847961 22.7389558,289.847961 Z M22.4389558,0 L22.4389558,283.147961 L23.0389558,283.147961 L23.0389558,0 L22.4389558,0 Z"></path>
                        <path id="Path-20" d="M60.437751,402.415736 C62.3707476,402.415736 63.9377509,400.848732 63.9377509,398.915736 C63.9377509,396.982739 62.3707476,395.415736 60.437751,395.415736 C58.5047544,395.415736 56.9377511,396.982739 56.9377511,398.915736 C56.9377511,400.848732 58.5047544,402.415736 60.437751,402.415736 Z M60.137751,0 L60.137751,395.715736 L60.737751,395.715736 L60.737751,0 L60.137751,0 Z"></path>
                        <path id="Path-21" d="M91.2218573,344.480933 C92.595952,343.121396 92.6077538,340.90535 91.2482173,339.531256 C89.8886809,338.157161 87.6726349,338.145359 86.2985401,339.504895 C84.9244454,340.864432 84.9126436,343.080478 86.2721801,344.454573 C87.6317166,345.828667 89.8477625,345.840469 91.2218573,344.480933 Z M64.326506,0 L64.326506,317.600791 L64.326506,317.72412 L64.4132473,317.81179 L86.2978257,339.930715 L86.7243432,339.508716 L64.8397648,317.389792 L64.926506,317.600791 L64.926506,0 L64.326506,0 Z"></path>
                        <path id="Path-22" d="M103.826585,365.949601 C105.759581,365.949601 107.326585,364.382598 107.326585,362.449601 C107.326585,360.516604 105.759581,358.949601 103.826585,358.949601 C101.893588,358.949601 100.326585,360.516604 100.326585,362.449601 C100.326585,364.382598 101.893588,365.949601 103.826585,365.949601 Z M73.3024097,0 L73.3024097,245.425344 L73.3568815,245.597728 L103.581057,288.646528 L103.526585,288.474145 L103.526585,359.249601 L104.126585,359.249601 L104.126585,288.474145 L104.072113,288.301762 L73.8479378,245.252961 L73.9024096,245.425344 L73.9024096,0 L73.3024097,0 Z"></path>
                        <path id="Path-23" d="M116.802425,304.338854 C118.735422,304.338854 120.302425,302.771851 120.302425,300.838854 C120.302425,298.905858 118.735422,297.338854 116.802425,297.338854 C114.869429,297.338854 113.302425,298.905858 113.302425,300.838854 C113.302425,302.771851 114.869429,304.338854 116.802425,304.338854 Z M85.8686747,0 L85.8686747,220.556607 L85.9347057,220.744379 L116.568456,258.914755 L116.502425,258.726983 L116.502425,297.638854 L117.102425,297.638854 L117.102425,258.726983 L117.036394,258.53921 L86.4026437,220.368834 L86.4686747,220.556607 L86.4686747,0 L85.8686747,0 Z"></path>
                        <path id="Path-24" d="M148.279215,334.541284 C150.212211,334.541284 151.779214,332.974281 151.779214,331.041284 C151.779214,329.108287 150.212211,327.541284 148.279215,327.541284 C146.346218,327.541284 144.779215,329.108287 144.779215,331.041284 C144.779215,332.974281 146.346218,334.541284 148.279215,334.541284 Z M94.7,0 L94.7,214.640315 L94.768871,214.831572 L148.048086,279.217987 L147.979215,279.02673 L147.979215,327.841284 L148.579215,327.841284 L148.579215,279.02673 L148.510344,278.835473 L95.231129,214.449058 L95.3,214.640315 L95.3,0 L94.7,0 Z"></path>
                        <path id="Path-24-Copy" d="M183.279215,318.541284 C185.212211,318.541284 186.779214,316.974281 186.779214,315.041284 C186.779214,313.108287 185.212211,311.541284 183.279215,311.541284 C181.346218,311.541284 179.779215,313.108287 179.779215,315.041284 C179.779215,316.974281 181.346218,318.541284 183.279215,318.541284 Z M109.7,0 L109.7,214.640315 L109.780849,214.845188 L183.060063,293.231602 L182.979215,293.02673 L182.979215,311.841284 L183.579215,311.841284 L183.579215,293.02673 L183.498366,292.821857 L110.219151,214.435443 L110.3,214.640315 L110.3,0 L109.7,0 Z"></path>
                    </g>
                </g>
            </g>
        </g>
    </g>
</svg>