<?xml version="1.0" encoding="UTF-8"?>
<svg width="378px" height="378px" viewBox="0 0 378 378" version="1.1" xmlns="http://www.w3.org/2000/svg" xmlns:xlink="http://www.w3.org/1999/xlink">
    <!-- Generator: Sketch 51.3 (57544) - http://www.bohemiancoding.com/sketch -->
    <title>外</title>
    <desc>Created with Sketch.</desc>
    <defs></defs>
    <g id="Page-1" stroke="none" stroke-width="1" fill="none" fill-rule="evenodd">
        <g id="态势分析" transform="translate(-771.000000, -351.000000)">
            <g id="内容" transform="translate(18.000000, -183.000000)">
                <g id="科技圈" transform="translate(689.000000, 470.000000)">
                    <g id="外">
                        <g id="Group-58">
                            <circle id="Oval-12-Copy" stroke="#336CFF" stroke-width="4" opacity="0.295703" cx="252.730277" cy="252.730277" r="183.411514"></circle>
                            <path d="M252.730277,436.141791 C354.025659,436.141791 436.141791,354.025659 436.141791,252.730277 C436.141791,151.434895 354.025659,69.3187633 252.730277,69.3187633 C151.434895,69.3187633 69.3187633,151.434895 69.3187633,252.730277 C69.3187633,354.025659 151.434895,436.141791 252.730277,436.141791 Z" id="Oval-12-Copy" stroke="#3366FF" stroke-width="4" opacity="0.35742175" stroke-dasharray="64.79999613761902"></path>
                            <path d="M253,69.5884861 C200.675127,69.5884861 153.467882,91.4996554 120.053092,126.647167 M69.5884861,253 C69.5884861,300.953445 87.9914943,344.608638 118.12029,377.288357 M253,436.411514 C307.744363,436.411514 356.886881,412.427161 390.492858,374.393149 M436.411514,253 C436.411514,202.33739 415.870385,156.472418 382.662191,123.279148" id="Oval-12-Copy" stroke="#02EDFE" stroke-width="10.2599991" opacity="0.804040054" stroke-dasharray="1.619999788999564,2.159999814033512" transform="translate(253.000000, 253.000000) rotate(-328.000000) translate(-253.000000, -253.000000) "></path>
                        </g>
                    </g>
                </g>
            </g>
        </g>
    </g>
</svg>