<?xml version="1.0" encoding="UTF-8"?>
<svg width="187px" height="187px" viewBox="0 0 187 187" version="1.1" xmlns="http://www.w3.org/2000/svg" xmlns:xlink="http://www.w3.org/1999/xlink">
    <!-- Generator: Sketch 51.3 (57544) - http://www.bohemiancoding.com/sketch -->
    <title>外</title>
    <desc>Created with Sketch.</desc>
    <defs></defs>
    <g id="Page-1" stroke="none" stroke-width="1" fill="none" fill-rule="evenodd" stroke-linejoin="round">
        <g id="态势分析" transform="translate(-868.000000, -449.000000)" stroke="#1BB4FF">
            <g id="内容" transform="translate(18.000000, -183.000000)">
                <g id="科技圈" transform="translate(689.000000, 470.000000)">
                    <g id="Group-57" transform="translate(0.000000, 2.000000)">
                        <path d="M252.487783,342.069703 C203.319015,341.211459 164.155597,300.656552 165.013841,251.487783 C165.872085,202.319015 206.426991,163.155597 255.59576,164.013841 C304.764528,164.872085 343.927947,205.426991 343.069703,254.59576 C342.211459,303.764528 301.656552,342.927947 252.487783,342.069703 Z" id="Oval-12-Copy" stroke-dasharray="1,1"></path>
                        <path d="M252.487783,342.069703 C203.319015,341.211459 164.155597,300.656552 165.013841,251.487783 C165.872085,202.319015 206.426991,163.155597 255.59576,164.013841 C304.764528,164.872085 343.927947,205.426991 343.069703,254.59576 C342.211459,303.764528 301.656552,342.927947 252.487783,342.069703 Z" id="Oval-12-Copy" stroke-width="8" stroke-dasharray="1,9"></path>
                    </g>
                </g>
            </g>
        </g>
    </g>
</svg>