<?xml version="1.0" encoding="UTF-8"?>
<svg width="501px" height="498px" viewBox="0 0 501 498" version="1.1" xmlns="http://www.w3.org/2000/svg" xmlns:xlink="http://www.w3.org/1999/xlink">
    <!-- Generator: Sketch 51.3 (57544) - http://www.bohemiancoding.com/sketch -->
    <title>外</title>
    <desc>Created with Sketch.</desc>
    <defs></defs>
    <g id="Page-1" stroke="none" stroke-width="1" fill="none" fill-rule="evenodd">
        <g id="态势分析" transform="translate(-710.000000, -291.000000)">
            <g id="内容" transform="translate(18.000000, -183.000000)">
                <g id="科技圈" transform="translate(689.000000, 470.000000)">
                    <g id="外">
                        <g id="Group-59" transform="translate(0.000000, 1.000000)">
                            <path d="M253,496.482487 C388.865592,496.482487 499.006416,387.023949 499.006416,252 C499.006416,116.976051 388.865592,7.51751289 253,7.51751289 C117.134408,7.51751289 6.99358445,116.976051 6.99358445,252 C6.99358445,387.023949 117.134408,496.482487 253,496.482487 Z" id="Oval-12-Copy" stroke="#184AFF" stroke-width="8" opacity="0.3" stroke-linejoin="round" stroke-dasharray="2,2"></path>
                            <path d="M253,435.411514 C354.295382,435.411514 436.411514,353.295382 436.411514,252 C436.411514,150.704618 354.295382,68.5884861 253,68.5884861" id="Oval-12-Copy" stroke-opacity="0.8" stroke="#184AFF" stroke-width="43.1999963" stroke-dasharray="194.3999884128571,32.39999806880951"></path>
                            <path d="M251.448561,454.308635 C362.514614,454.308635 452.551439,364.27181 452.551439,253.205757 C452.551439,142.139704 362.514614,52.1028785 251.448561,52.1028785" id="Oval-12-Copy" stroke="#33A8FF" stroke-width="10" stroke-dasharray="1,30"></path>
                            <path d="M251.448561,454.308635 C362.514614,454.308635 452.551439,364.27181 452.551439,253.205757 C452.551439,142.139704 362.514614,52.1028785 251.448561,52.1028785" id="Oval-12-Copy" stroke="#33A8FF" stroke-width="2" stroke-dasharray="1,4"></path>
                            <path d="M253,52.4051173 C142.76679,52.4051173 53.4051173,141.76679 53.4051173,252 C53.4051173,362.23321 142.76679,451.594883 253,451.594883" id="Oval-12-Copy" stroke="#4CAAFF" stroke-width="10.7999991" stroke-dasharray="194.3999938964844,16"></path>
                            <path d="M253,52.4051173 C142.76679,52.4051173 53.4051173,141.76679 53.4051173,252 C53.4051173,362.23321 142.76679,451.594883 253,451.594883" id="Oval-12-Copy" stroke="#1039C2" stroke-width="3" stroke-dasharray="1,8"></path>
                        </g>
                    </g>
                </g>
            </g>
        </g>
    </g>
</svg>