<?xml version="1.0" encoding="UTF-8"?>
<svg width="238px" height="238px" viewBox="0 0 238 238" version="1.1" xmlns="http://www.w3.org/2000/svg" xmlns:xlink="http://www.w3.org/1999/xlink">
    <!-- Generator: Sketch 51.3 (57544) - http://www.bohemiancoding.com/sketch -->
    <title>外</title>
    <desc>Created with Sketch.</desc>
    <defs>
        <circle id="path-1" cx="254" cy="253" r="84"></circle>
        <filter x="-11.3%" y="-11.3%" width="122.6%" height="122.6%" filterUnits="objectBoundingBox" id="filter-2">
            <feMorphology radius="2" operator="erode" in="SourceAlpha" result="shadowSpreadInner1"></feMorphology>
            <feGaussianBlur stdDeviation="17.5" in="shadowSpreadInner1" result="shadowBlurInner1"></feGaussianBlur>
            <feOffset dx="0" dy="1" in="shadowBlurInner1" result="shadowOffsetInner1"></feOffset>
            <feComposite in="shadowOffsetInner1" in2="SourceAlpha" operator="arithmetic" k2="-1" k3="1" result="shadowInnerInner1"></feComposite>
            <feColorMatrix values="0 0 0 0 0.0137902462   0 0 0 0 0.803026041   0 0 0 0 1  0 0 0 1 0" type="matrix" in="shadowInnerInner1"></feColorMatrix>
        </filter>
        <circle id="path-3" cx="253.5" cy="253.5" r="42.5"></circle>
        <filter x="-35.3%" y="-35.3%" width="170.5%" height="170.5%" filterUnits="objectBoundingBox" id="filter-4">
            <feGaussianBlur stdDeviation="9.99096343" in="SourceGraphic"></feGaussianBlur>
        </filter>
        <filter x="-57.6%" y="-57.6%" width="215.2%" height="215.2%" filterUnits="objectBoundingBox" id="filter-5">
            <feMorphology radius="2" operator="erode" in="SourceAlpha" result="shadowSpreadInner1"></feMorphology>
            <feGaussianBlur stdDeviation="17.5" in="shadowSpreadInner1" result="shadowBlurInner1"></feGaussianBlur>
            <feOffset dx="0" dy="1" in="shadowBlurInner1" result="shadowOffsetInner1"></feOffset>
            <feComposite in="shadowOffsetInner1" in2="SourceAlpha" operator="arithmetic" k2="-1" k3="1" result="shadowInnerInner1"></feComposite>
            <feColorMatrix values="0 0 0 0 0.301960784   0 0 0 0 0.701602462   0 0 0 0 1  0 0 0 1 0" type="matrix" in="shadowInnerInner1"></feColorMatrix>
        </filter>
    </defs>
    <g id="Page-1" stroke="none" stroke-width="1" fill="none" fill-rule="evenodd">
        <g id="态势分析" transform="translate(-842.000000, -423.000000)">
            <g id="内容" transform="translate(18.000000, -183.000000)">
                <g id="科技圈" transform="translate(689.000000, 470.000000)">
                    <g id="里" transform="translate(0.000000, 2.000000)">
                        <path d="M254,199 C246.647004,199 239.633417,200.476582 233.230769,203.153846 M215.230769,215.615385 C210.909417,220.223162 207.374512,225.605748 204.846154,231.538462 M200,253 C200,258.800613 200.728894,264.385447 202.076923,269.615385 M214.538462,289.692308 C219.386642,294.915618 225.262752,299.176063 231.846154,302.153846 M254,307 C262.712213,307 270.942893,305.005068 278.230769,301.461538 M296.923077,286.230769 C300.485173,281.499949 303.314643,276.128774 305.230769,270.307692 M308,253 C308,245.108667 306.268115,237.610745 303.153846,230.846154 M292.076923,215.615385 C287.361401,210.67372 281.728982,206.654377 275.461538,203.846154" id="Oval-12-Copy" stroke="#0042F5" stroke-width="130" opacity="0.6" stroke-dasharray="1.619999788999564" transform="translate(254.000000, 253.000000) rotate(-2.000000) translate(-254.000000, -253.000000) "></path>
                        <g id="Oval-12-Copy" fill="black" fill-opacity="1">
                            <use filter="url(#filter-2)" xlink:href="#path-1"></use>
                        </g>
                        <g id="Oval-12-Copy" opacity="0.88359375" style="mix-blend-mode: hard-light;" filter="url(#filter-4)">
                            <use fill="#258CFF" fill-rule="evenodd" xlink:href="#path-3"></use>
                            <use fill="black" fill-opacity="1" filter="url(#filter-5)" xlink:href="#path-3"></use>
                        </g>
                        <path d="M254,323 C292.659932,323 324,291.659932 324,253 C324,214.340068 292.659932,183 254,183 C215.340068,183 184,214.340068 184,253 C184,291.659932 215.340068,323 254,323 Z" id="Oval-12-Copy" stroke="#0E1A6D" stroke-width="8" stroke-linejoin="bevel" stroke-dasharray="4,26"></path>
                    </g>
                </g>
            </g>
        </g>
    </g>
</svg>