<?xml version="1.0" encoding="UTF-8"?>
<svg width="166px" height="166px" viewBox="0 0 166 166" version="1.1" xmlns="http://www.w3.org/2000/svg" xmlns:xlink="http://www.w3.org/1999/xlink">
    <!-- Generator: Sketch 51.3 (57544) - http://www.bohemiancoding.com/sketch -->
    <title>小科技外圈</title>
    <desc>Created with Sketch.</desc>
    <defs></defs>
    <g id="Page-1" stroke="none" stroke-width="1" fill="none" fill-rule="evenodd">
        <g id="态势分析" transform="translate(-685.000000, -198.000000)">
            <g id="内容" transform="translate(18.000000, -183.000000)">
                <g id="中间2" transform="translate(628.000000, 343.000000)">
                    <g id="小型科技圈1" transform="translate(121.720013, 121.698101) rotate(84.000000) translate(-121.720013, -121.698101) translate(11.220013, 11.198101)">
                        <g id="Group-52">
                            <circle id="Oval-12-Copy" fill="#171C6E" cx="110.490741" cy="110.490741" r="54.4907407"></circle>
                            <path d="M110.074074,169.148148 C142.699784,169.148148 169.148148,142.699784 169.148148,110.074074 C169.148148,77.4483639 142.699784,51 110.074074,51 C77.4483639,51 51,77.4483639 51,110.074074 C51,142.699784 77.4483639,169.148148 110.074074,169.148148 Z" id="Oval-12-Copy" stroke="#336CFF" stroke-width="2.99999982" stroke-dasharray="0.5999999642372131,1.199999928474426"></path>
                            <path d="M110.240741,178.481481 C147.929061,178.481481 178.481481,147.929061 178.481481,110.240741 C178.481481,72.5524203 147.929061,42 110.240741,42 C72.5524203,42 42,72.5524203 42,110.240741 C42,147.929061 72.5524203,178.481481 110.240741,178.481481 Z" id="Oval-12-Copy" stroke="#00C0D4" stroke-width="9.59999943" stroke-dasharray="13.19999921321869,1.799999892711639"></path>
                            <circle id="Oval-12-Copy" stroke="#00EEFF" stroke-width="2.99999982" cx="110.675926" cy="110.675926" r="64.6759259"></circle>
                            <path d="M110.462963,190.925926 C154.90143,190.925926 190.925926,154.90143 190.925926,110.462963 C190.925926,66.0244956 154.90143,30 110.462963,30 C66.0244956,30 30,66.0244956 30,110.462963 C30,154.90143 66.0244956,190.925926 110.462963,190.925926 Z" id="Oval-12-Copy" stroke="#0093FF" stroke-width="0.599999964" opacity="0.751249875" stroke-dasharray="233.9999860525131,35.99999785423279"></path>
                            <path d="M110.462963,30 C87.3535985,30 66.5044427,39.1860924 51.7467467,53.9214214 M30,110.462963 C30,132.278053 38.2462535,152.137773 51.7467467,167.004505 M110.462963,190.925926 C133.8415,190.925926 154.827773,179.992775 169.179179,162.655155 M190.925926,110.462963 C190.925926,88.3806068 181.783987,68.3894012 167.004505,53.9214214" id="Oval-12-Copy" stroke="#01CFF4" stroke-width="3.71999978" stroke-dasharray="1.199999928474426,1.199999928474426" transform="translate(110.462963, 110.462963) rotate(-330.000000) translate(-110.462963, -110.462963) "></path>
                        </g>
                    </g>
                </g>
            </g>
        </g>
    </g>
</svg>