<?xml version="1.0" encoding="UTF-8"?>
<svg width="1920px" height="1080px" viewBox="0 0 1920 1080" version="1.1" xmlns="http://www.w3.org/2000/svg" xmlns:xlink="http://www.w3.org/1999/xlink">
    <!-- Generator: Sketch 51.3 (57544) - http://www.bohemiancoding.com/sketch -->
    <title>背景</title>
    <desc>Created with Sketch.</desc>
    <defs></defs>
    <g id="Page-1" stroke="none" stroke-width="1" fill="none" fill-rule="evenodd" opacity="0.304141">
        <g id="态势分析" stroke="#6D9EAF" stroke-width="0.5">
            <g id="背景" transform="translate(-488.000000, 0.000000)">
                <g id="Group-404" transform="translate(-1516.000000, -136.000000)">
                    <polygon id="Stroke-142" points="2109.46115 133.933288 2186 133 2147.17249 156.034037 2066 157"></polygon>
                    <polygon id="Stroke-143" points="2185.65227 133.937181 2262 133 2227.97957 156.030785 2147 157"></polygon>
                    <polygon id="Stroke-144" points="2262.16764 132.939745 2339 132 2309.50408 155.026815 2228 156"></polygon>
                    <polygon id="Stroke-145" points="2338.08472 129.943026 2414 129 2389.54153 152.024174 2309 153"></polygon>
                    <polygon id="Stroke-146" points="2416.81751 128.945658 2494 128 2473.89637 151.020813 2392 152"></polygon>
                    <polygon id="Stroke-147" points="2492.80671 127.948928 2569 127 2553.85693 150.016815 2473 151"></polygon>
                    <polygon id="Stroke-148" points="2569.22811 125.952261 2646 125 2635.48116 148.014122 2554 149"></polygon>
                    <polygon id="Stroke-149" points="2646.7057 124.955576 2725 124 2719.10575 147.010076 2636 148"></polygon>
                    <polygon id="Stroke-150" points="2724.87004 123.958899 2803 123 2801.94305 146.006707 2719 147"></polygon>
                    <polygon id="Stroke-151" points="2803.05614 123.961626 2881.23019 123 2885 146.003932 2802 147"></polygon>
                    <polygon id="Stroke-152" points="2880 122.964994 2958.3792 122 2967 144.999828 2883.77206 146"></polygon>
                    <polygon id="Stroke-153" points="2958 121.968399 3035.66112 121 3049 143.996374 2966.52457 145"></polygon>
                    <polygon id="Stroke-154" points="3036 120.971814 3113.82507 120 3132 142.99291 3049.33986 144"></polygon>
                    <polygon id="Stroke-155" points="3113 117.97521 3191.74471 117 3215 139.988774 3131.35239 141"></polygon>
                    <polygon id="Stroke-156" points="3192 117.978672 3269.37013 117 3297 139.985955 3214.80286 141"></polygon>
                    <polygon id="Stroke-157" points="3270 116.982115 3348.93255 116 3382 138.981768 3298.13086 140"></polygon>
                    <polygon id="Stroke-158" points="3349 115.985625 3427.33914 115 3465 137.978901 3381.75101 139"></polygon>
                    <polygon id="Stroke-159" points="3428 114.988448 3507.08993 114 3550 136.974633 3465.94421 138"></polygon>
                    <polygon id="Stroke-160" points="3507 114.991978 3586.15874 114 3634 136.97105 3549.85994 138"></polygon>
                    <polygon id="Stroke-161" points="3587 113.995488 3666.82212 113 3720 135.966788 3635.14369 137"></polygon>
                    <polygon id="Stroke-162" points="2066.76177 158.071941 2149 157 2104.53869 185.891043 2017 187"></polygon>
                    <polygon id="Stroke-163" points="2146.45373 157.075453 2227 156 2188.74843 184.886732 2103 186"></polygon>
                    <polygon id="Stroke-164" points="2228.58238 156.078973 2310 155 2276.68836 183.883168 2190 185"></polygon>
                    <polygon id="Stroke-165" points="2310.0498 155.08326 2391 154 2363.20354 182.879596 2277 184"></polygon>
                    <polygon id="Stroke-166" points="2390.07209 153.086066 2472 152 2449.25614 180.875228 2362 182"></polygon>
                    <polygon id="Stroke-167" points="2472.56018 152.090398 2554 151 2536.74909 179.871609 2450 181"></polygon>
                    <polygon id="Stroke-168" points="2555.44882 150.093247 2638 149 2625.94496 177.867192 2538 179"></polygon>
                    <polygon id="Stroke-169" points="2635.95542 150.096864 2718 149 2711.41721 177.863527 2624 179"></polygon>
                    <polygon id="Stroke-170" points="2717.59735 150.101225 2800 149 2798.81135 177.859118 2711 179"></polygon>
                    <polygon id="Stroke-171" points="2801.17497 149.104889 2882.80388 148 2887 176.855405 2800 178"></polygon>
                    <polygon id="Stroke-172" points="2884 148.108563 2966.34682 147 2976 175.851682 2888.22391 177"></polygon>
                    <polygon id="Stroke-173" points="2965 147.112245 3047.83496 146 3063 174.847184 2974.68963 176"></polygon>
                    <polygon id="Stroke-174" points="3049 146.115937 3131.47131 145 3152 173.843442 3064.06582 175"></polygon>
                    <polygon id="Stroke-175" points="3133 145.119666 3216.66467 144 3243 172.838893 3153.78027 174"></polygon>
                    <polygon id="Stroke-176" points="3215 144.123406 3298.29446 143 3330 171.834332 3241.16214 173"></polygon>
                    <polygon id="Stroke-177" points="3299 142.127924 3382.64971 141 3420 169.830529 3330.77183 171"></polygon>
                    <polygon id="Stroke-178" points="3383 140.056265 3466.97283 139 3510 165.904907 3420.41356 167"></polygon>
                    <polygon id="Stroke-179" points="3465 139.05981 3549.90095 138 3599 164.901311 3508.40895 166"></polygon>
                    <polygon id="Stroke-180" points="3550 138.063364 3633.93047 137 3688 163.896264 3598.43256 165"></polygon>
                    <polygon id="Stroke-181" points="3634 137.06765 3718.78884 136 3779 162.892647 3688.50385 164"></polygon>
                    <polygon id="Stroke-182" points="2018.20501 186.074337 2105 185 2054.77304 216.889071 1962 218"></polygon>
                    <polygon id="Stroke-183" points="2103.78056 185.07834 2190 184 2146.17371 215.885031 2054 217"></polygon>
                    <polygon id="Stroke-184" points="2189.41817 184.081667 2277 183 2238.64458 214.881667 2145 216"></polygon>
                    <polygon id="Stroke-185" points="2275.7057 184.08571 2362 183 2330.28205 214.877586 2238 216"></polygon>
                    <polygon id="Stroke-186" points="2362.3932 182.088364 2448 181 2422.56224 212.874157 2331 214"></polygon>
                    <polygon id="Stroke-187" points="2449.84021 181.092447 2537 180 2517.23729 211.870034 2424 213"></polygon>
                    <polygon id="Stroke-188" points="2536.55574 180.095827 2623 179 2609.48712 210.865878 2517 212"></polygon>
                    <polygon id="Stroke-189" points="2623.76189 179.099926 2712 178 2704.42188 209.861738 2610 211"></polygon>
                    <polygon id="Stroke-190" points="2712.49779 178.104059 2800 177 2798.64965 208.857565 2705 210"></polygon>
                    <polygon id="Stroke-191" points="2800.35209 175.107487 2888.16819 174 2893 205.854095 2799 207"></polygon>
                    <polygon id="Stroke-192" points="2887 174.110947 2975.84983 173 2987 204.849852 2891.87751 206"></polygon>
                    <polygon id="Stroke-193" points="2977 173.11513 3064.79513 172 3082 203.845626 2987.9925 205"></polygon>
                    <polygon id="Stroke-194" points="3063 173.118606 3151.43534 172 3175 203.841364 3080.2906 205"></polygon>
                    <polygon id="Stroke-195" points="3153 171.122833 3240.51177 170 3270 201.837093 3176.26505 203"></polygon>
                    <polygon id="Stroke-196" points="3242 170.126351 3330.1007 169 3366 200.833528 3271.61821 202"></polygon>
                    <polygon id="Stroke-197" points="3330 169.130596 3419.98562 168 3463 199.828495 3366.5833 201"></polygon>
                    <polygon id="Stroke-198" points="3420 168.134156 3509.11576 167 3558 198.824141 3462.50009 200"></polygon>
                    <polygon id="Stroke-199" points="3508 167.137751 3597.55669 166 3653 197.820497 3557.01239 199"></polygon>
                    <polygon id="Stroke-200" points="3598 167.142049 3687.36733 166 3749 197.815404 3653.19949 199"></polygon>
                    <polygon id="Stroke-201" points="3689 166.146383 3778.76098 165 3847 196.811767 3750.76101 198"></polygon>
                    <polygon id="Stroke-202" points="1961.04365 217.116457 2053 216 1995.75966 252.84824 1897 254"></polygon>
                    <polygon id="Stroke-203" points="2054.07951 216.119639 2146 215 2095.73898 251.844291 1997 253"></polygon>
                    <polygon id="Stroke-204" points="2146.82453 215.123563 2240 214 2196.10572 250.841073 2096 252"></polygon>
                    <polygon id="Stroke-205" points="2237.47963 215.127494 2330 214 2293.4195 250.836374 2194 252"></polygon>
                    <polygon id="Stroke-206" points="2331.77096 213.131431 2425 212 2395.19935 248.832404 2295 250"></polygon>
                    <polygon id="Stroke-207" points="2424.73841 212.134681 2518 211 2495.25179 247.828383 2395 249"></polygon>
                    <polygon id="Stroke-208" points="2517.70109 211.138654 2611 210 2595.3107 246.823637 2495 248"></polygon>
                    <polygon id="Stroke-209" points="2611.80123 209.141939 2706 208 2697.29702 244.819577 2596 246"></polygon>
                    <polygon id="Stroke-210" points="2703.69181 208.145948 2798 207 2796.43412 243.815532 2695 245"></polygon>
                    <polygon id="Stroke-211" points="2797.57048 207.149987 2892.38745 206 2898 242.811457 2796 244"></polygon>
                    <polygon id="Stroke-212" points="2893 206.154034 2986.39147 205 2999 241.807375 2898.5146 243"></polygon>
                    <polygon id="Stroke-213" points="2987 206.158088 3081.15032 205 3101 241.802541 2999.67914 243"></polygon>
                    <polygon id="Stroke-214" points="3081 205.162173 3175.81848 204 3203 240.798419 3100.94127 242"></polygon>
                    <polygon id="Stroke-215" points="3177 204.165544 3272.41138 203 3307 239.794265 3204.28424 241"></polygon>
                    <polygon id="Stroke-216" points="3270 202.169666 3365.24491 201 3407 237.790103 3304.44332 239"></polygon>
                    <polygon id="Stroke-217" points="3366 201.17452 3461.75578 200 3511 236.785211 3407.87539 238"></polygon>
                    <polygon id="Stroke-218" points="3462 200.177936 3557.58667 199 3614 235.780262 3511.03688 237"></polygon>
                    <polygon id="Stroke-219" points="3557 198.182129 3652.4335 197 3716 233.776773 3613.18367 235"></polygon>
                    <polygon id="Stroke-220" points="3654 198.186308 3749.8653 197 3821 233.771805 3717.69661 235"></polygon>
                    <polygon id="Stroke-221" points="3750 197.190518 3847.36257 196 3927 232.767551 3822.06576 234"></polygon>
                    <polygon id="Stroke-223" points="1997.69862 253.155532 2097 252 2038.25708 294.811348 1931 296"></polygon>
                    <polygon id="Stroke-224" points="2095.6301 252.159271 2195 251 2144.35426 293.807586 2037 295"></polygon>
                    <polygon id="Stroke-225" points="2194.21583 251.163733 2293 250 2250.74359 292.803102 2144 294"></polygon>
                    <polygon id="Stroke-226" points="2294.76486 250.166784 2395 249 2360.33442 291.798552 2252 293"></polygon>
                    <polygon id="Stroke-227" points="2394.62357 249.143974 2495 248 2468.51067 289.822125 2360 291"></polygon>
                    <polygon id="Stroke-228" points="2495.46224 248.148389 2596 247 2577.70768 288.817686 2469 290"></polygon>
                    <polygon id="Stroke-229" points="2594.97008 247.152108 2694 246 2684.1009 287.81322 2577 289"></polygon>
                    <polygon id="Stroke-230" points="2697.06382 247.155852 2798 246 2796.18626 287.808728 2687 289"></polygon>
                    <polygon id="Stroke-231" points="2795.82207 246.160324 2897.48852 245 2904 286.805676 2794 288"></polygon>
                    <polygon id="Stroke-232" points="2898 243.163375 2999.21533 242 3014 283.800428 2904.46546 285"></polygon>
                    <polygon id="Stroke-233" points="2999 242.16788 3099.96701 241 3123 282.79662 3013.70955 284"></polygon>
                    <polygon id="Stroke-234" points="3101 241.171686 3204.03899 240 3236 281.792062 3124.4434 283"></polygon>
                    <polygon id="Stroke-235" points="3203 240.175478 3305.70905 239 3346 280.786791 3234.77525 282"></polygon>
                    <polygon id="Stroke-236" points="3306 239.180042 3408.41636 238 3457 279.783649 3346.06942 281"></polygon>
                    <polygon id="Stroke-237" points="3408 238.183886 3510.15224 237 3567 278.778322 3456.3307 280"></polygon>
                    <polygon id="Stroke-238" points="3510 237.187757 3612.5237 236 3678 277.773694 3566.90292 279"></polygon>
                    <polygon id="Stroke-239" points="3613 236.192342 3717.02074 235 3792 276.769078 3679.25591 278"></polygon>
                    <polygon id="Stroke-240" points="3719 233.196246 3822.71703 232 3906 273.765142 3793.56069 275"></polygon>
                    <polygon id="Stroke-241" points="3822 231.200156 3925.96874 230 4018 271.759742 3905.26275 273"></polygon>
                    <polygon id="Stroke-243" points="1929.15037 295.198311 2036 294 1967.15511 344.774236 1851 346"></polygon>
                    <polygon id="Stroke-244" points="2036.23719 294.20257 2144 293 2084.17718 343.769964 1967 345"></polygon>
                    <polygon id="Stroke-245" points="2145.50523 294.206107 2253 293 2202.91484 343.764929 2086 345"></polygon>
                    <polygon id="Stroke-246" points="2252.12169 293.210408 2360 292 2319.3616 342.760613 2202 344"></polygon>
                    <polygon id="Stroke-247" points="2358.68665 292.213988 2467 291 2435.86432 341.756276 2318 343"></polygon>
                    <polygon id="Stroke-248" points="2468.9671 291.218314 2577 290 2555.58971 340.752678 2438 342"></polygon>
                    <polygon id="Stroke-249" points="2576.78145 289.222628 2687 288 2674.99811 338.746862 2555 340"></polygon>
                    <polygon id="Stroke-250" points="2683.85156 288.226254 2793 287 2790.86407 337.74322 2672 339"></polygon>
                    <polygon id="Stroke-251" points="2795.09593 287.230611 2902.50623 286 2910 336.738848 2793 338"></polygon>
                    <polygon id="Stroke-252" points="2904 285.234972 3013.56509 284 3031 334.733725 2911.62229 336"></polygon>
                    <polygon id="Stroke-253" points="3014 284.239356 3123.73016 283 3151 333.729325 3031.41137 335"></polygon>
                    <polygon id="Stroke-254" points="3123 283.243034 3233.61862 282 3271 332.724137 3150.41208 334"></polygon>
                    <polygon id="Stroke-255" points="3235 282.247462 3345.69433 281 3393 331.720436 3272.29963 333"></polygon>
                    <polygon id="Stroke-256" points="3345 281.251878 3455.75756 280 3513 330.715256 3392.198 332"></polygon>
                    <polygon id="Stroke-257" points="3457 280.256335 3569.05934 279 3637 329.710033 3514.74776 331"></polygon>
                    <polygon id="Stroke-258" points="3567 277.260778 3679.04147 276 3757 326.705571 3634.73482 328"></polygon>
                    <polygon id="Stroke-259" points="3680 277.264533 3792.02407 276 3880 326.700299 3757.72177 328"></polygon>
                    <polygon id="Stroke-260" points="3793 276.269023 3905.54042 275 4004 325.695789 3881.12629 327"></polygon>
                    <polygon id="Stroke-261" points="3905 273.274267 4016.99022 272 4125 322.690524 4002.69555 324"></polygon>
                    <polygon id="Stroke-264" points="1967.88514 344.193102 2084 343 2013.22926 401.789617 1886 403"></polygon>
                    <polygon id="Stroke-265" points="2084.43472 343.197681 2202 342 2141.85822 400.786475 2013 402"></polygon>
                    <polygon id="Stroke-266" points="2202.11829 342.201542 2320 341 2271.24301 399.78189 2142 401"></polygon>
                    <polygon id="Stroke-267" points="2317.46409 341.205404 2435 340 2397.90274 398.776584 2269 400"></polygon>
                    <polygon id="Stroke-268" points="2436.09798 341.209297 2554 340 2528.34359 398.772686 2399 400"></polygon>
                    <polygon id="Stroke-269" points="2556.84888 340.213898 2676 339 2661.75401 397.768081 2531 399"></polygon>
                    <polygon id="Stroke-270" points="2673.27069 338.217103 2793 337 2790.42678 395.76415 2659 397"></polygon>
                    <polygon id="Stroke-271" points="2793.57565 337.221016 2913.78967 336 2923 394.75879 2791 396"></polygon>
                    <polygon id="Stroke-272" points="2913 336.225653 3033.02604 335 3054 393.754148 2922.16661 395"></polygon>
                    <polygon id="Stroke-273" points="3032 334.2296 3151.4115 333 3184 391.750195 3052.80165 393"></polygon>
                    <polygon id="Stroke-274" points="3153 333.234256 3274.07028 332 3319 390.745534 3185.9383 392"></polygon>
                    <polygon id="Stroke-275" points="3271 332.238208 3392.14362 331 3449 389.740133 3315.8173 391"></polygon>
                    <polygon id="Stroke-276" points="3393 331.242191 3514.20558 330 3583 388.736143 3449.7077 390"></polygon>
                    <polygon id="Stroke-277" points="3515 329.246885 3636.85742 328 3718 386.730721 3583.94811 388"></polygon>
                    <polygon id="Stroke-278" points="3636 326.250888 3757.86783 325 3851 383.72671 3716.89583 385"></polygon>
                    <polygon id="Stroke-279" points="3757 325.255602 3879.94987 324 3986 382.721989 3850.66298 384"></polygon>
                    <polygon id="Stroke-280" points="3881 325.259626 4003.90087 324 4122 382.716512 3986.67517 384"></polygon>
                    <polygon id="Stroke-284" points="1886.45567 405.200131 2015 404 1928.15151 474.804153 1786 476"></polygon>
                    <polygon id="Stroke-285" points="2013.113 405.203581 2141 404 2068.47599 474.799988 1927 476"></polygon>
                    <polygon id="Stroke-286" points="2140.58043 404.207733 2269 403 2210.11699 473.795122 2068 475"></polygon>
                    <polygon id="Stroke-287" points="2271.27865 401.211194 2401 400 2355.60933 470.790234 2212 472"></polygon>
                    <polygon id="Stroke-288" points="2398.98928 399.215368 2528 398 2496.87571 468.78606 2354 470"></polygon>
                    <polygon id="Stroke-289" points="2530.40106 398.219541 2661 397 2643.68689 467.781173 2499 469"></polygon>
                    <polygon id="Stroke-290" points="2659.27082 397.223737 2790 396 2786.88452 466.77769 2642 468"></polygon>
                    <polygon id="Stroke-291" points="2792.12761 396.227934 2923.81409 395 2935 465.773493 2789 467"></polygon>
                    <polygon id="Stroke-292" points="2920 395.232129 3051.51679 394 3077 464.768584 2931.13347 466"></polygon>
                    <polygon id="Stroke-293" points="3053 394.235635 3185.0421 393 3225 463.763651 3078.49674 465"></polygon>
                    <polygon id="Stroke-294" points="3186 393.239842 3317.77321 392 3372 462.758731 3225.74016 464"></polygon>
                    <polygon id="Stroke-295" points="3317 391.244774 3449.1968 390 3518 460.754513 3371.21479 462"></polygon>
                    <polygon id="Stroke-296" points="3451 389.248291 3583.56054 388 3667 458.749569 3519.75552 460"></polygon>
                    <polygon id="Stroke-297" points="3583 388.253235 3716.45146 387 3815 457.744626 3666.71013 459"></polygon>
                    <polygon id="Stroke-298" points="3716 387.256776 3850.23326 386 3964 456.740371 3814.78501 458"></polygon>
                    <polygon id="Stroke-299" points="3850 386.261731 3983.90282 385 4112 455.735416 3963.0947 457"></polygon>
                    <polygon id="Stroke-305" points="1926.12107 476.226722 2068 475 1977.7456 564.813415 1819 566"></polygon>
                    <polygon id="Stroke-306" points="2068.99629 475.231218 2211 474 2137.95787 563.808899 1979 565"></polygon>
                    <polygon id="Stroke-307" points="2212.18469 474.248562 2355 473 2298.93856 563.791976 2139 565"></polygon>
                    <polygon id="Stroke-308" points="2354.22594 472.252372 2498 471 2459.08541 561.786672 2298 563"></polygon>
                    <polygon id="Stroke-309" points="2497.86547 470.256925 2642 469 2620.56317 559.782837 2459 561"></polygon>
                    <polygon id="Stroke-310" points="2641.42183 469.261464 2786 468 2782.13439 558.777543 2620 560"></polygon>
                    <polygon id="Stroke-311" points="2786.86981 468.265282 2932.1531 467 2946 557.77297 2783 559"></polygon>
                    <polygon id="Stroke-312" points="2933 467.269833 3079.21017 466 3111 556.768402 2946.88266 558"></polygon>
                    <polygon id="Stroke-313" points="3079 466.273654 3225.31369 465 3275 555.763828 3110.69092 557"></polygon>
                    <polygon id="Stroke-314" points="3224 465.278206 3370.3947 464 3438 554.759258 3273.5252 556"></polygon>
                    <polygon id="Stroke-315" points="3371 464.282041 3519.35032 463 3606 553.754673 3439.2481 555"></polygon>
                    <polygon id="Stroke-316" points="3518 462.286595 3665.67632 461 3770 551.750102 3603.92781 553"></polygon>
                    <polygon id="Stroke-317" points="3667 461.291156 3815.18291 460 3938 550.745525 3771.28044 552"></polygon>
                    <polygon id="Stroke-318" points="3816 459.29499 3965.64453 458 4108 548.740208 3939.55531 550"></polygon>
                    <polygon id="Stroke-326" points="1978.65218 564.195718 2139 563 2045.08616 677.914115 1863 679"></polygon>
                    <polygon id="Stroke-327" points="2138.56833 563.199654 2299 562 2227.28748 676.910802 2045 678"></polygon>
                    <polygon id="Stroke-328" points="2298.45989 562.203583 2459 561 2409.51602 675.906763 2227 677"></polygon>
                    <polygon id="Stroke-329" points="2459.55373 562.206774 2621 561 2593.65368 675.902003 2410 677"></polygon>
                    <polygon id="Stroke-330" points="2622.42172 560.21141 2785 559 2780.04872 673.897989 2595 675"></polygon>
                    <polygon id="Stroke-331" points="2783.9261 559.215316 2946.36475 558 2964 672.893247 2779 674"></polygon>
                    <polygon id="Stroke-332" points="2947 558.219221 3110.50589 557 3151 671.889963 2964.67515 673"></polygon>
                    <polygon id="Stroke-333" points="3110 557.223119 3275.12343 556 3339 670.885231 3150.72011 672"></polygon>
                    <polygon id="Stroke-334" points="3275 555.22701 3439.47055 554 3526 668.880508 3338.35324 670"></polygon>
                    <polygon id="Stroke-335" points="3440 554.241511 3606.32097 553 3717 668.866828 3527.12982 670"></polygon>
                    <polygon id="Stroke-336" points="3606 553.246143 3772.21398 552 3906 667.86209 3716.13602 669"></polygon>
                    <polygon id="Stroke-337" points="3771 552.250052 3937.63078 551 4095 666.857346 3904.54553 668"></polygon>
                    <polygon id="Stroke-346" points="1864.70264 679.082802 2046 678 1922.73043 829.162691 1713 830"></polygon>
                    <polygon id="Stroke-347" points="2044.49713 678.086121 2227 677 2132.2858 828.158968 1921 829"></polygon>
                    <polygon id="Stroke-348" points="2227.34216 677.089433 2410 676 2344.62735 827.156709 2133 828"></polygon>
                    <polygon id="Stroke-349" points="2411.3962 676.093447 2595 675 2558.88591 826.153015 2346 827"></polygon>
                    <polygon id="Stroke-350" points="2593.01511 675.111151 2777 674 2770.49319 827.138141 2557 828"></polygon>
                    <polygon id="Stroke-351" points="2778.51613 673.115187 2963.65579 672 2987 825.135161 2772 826"></polygon>
                    <polygon id="Stroke-352" points="2964 672.117743 3150.38215 671 3204 824.131459 2987.38744 825"></polygon>
                    <polygon id="Stroke-353" points="3152 672.121743 3338.97565 671 3423 824.127777 3205.5281 825"></polygon>
                    <polygon id="Stroke-354" points="3339 671.133034 3527.67574 670 3643 824.118424 3423.37783 825"></polygon>
                    <polygon id="Stroke-355" points="3527 669.1363 3716.48723 668 3863 822.115477 3642.25721 823"></polygon>
                    <polygon id="Stroke-356" points="3715 668.140277 3905.15011 667 4083 821.111815 3861.30909 822"></polygon>
                    <polygon id="Stroke-357" points="3906 667.143509 4097.17518 666 4307 820.108165 4083.93481 821"></polygon>
                    <polygon id="Stroke-367" points="1921.45519 829.844808 2133 829 2002.15382 1038.68613 1751 1039"></polygon>
                    <polygon id="Stroke-368" points="2132.24864 829.851079 2344 829 2253.66372 1039.68323 2002 1040"></polygon>
                    <polygon id="Stroke-369" points="2344.55322 828.85404 2558 828 2507.94793 1038.68258 2254 1039"></polygon>
                    <polygon id="Stroke-370" points="2556.92073 827.856972 2771 827 2761.97312 1037.68119 2507 1038"></polygon>
                    <polygon id="Stroke-371" points="2771.07325 827.863221 2987.46191 827 3020 1038.67757 2762 1039"></polygon>
                    <polygon id="Stroke-372" points="2988 826.866121 3205.40496 826 3280 1037.67694 3020.50763 1038"></polygon>
                    <polygon id="Stroke-373" points="3204 824.876458 3421.43717 824 3538 1037.67252 3278.18691 1038"></polygon>
                    <polygon id="Stroke-374" points="3421 823.879332 3640.16939 823 3800 1036.67117 3537.82912 1037"></polygon>
                    <polygon id="Stroke-375" points="3642 823.88218 3862.0081 823 4065 1036.66982 3801.53546 1037"></polygon>
                    <polygon id="Stroke-376" points="3861 822.885001 4082.14352 822 4329 1035.66849 4063.88275 1036"></polygon>
                    <polygon id="Stroke-389" points="2000.75448 1039.31486 2253 1039 2119.83095 1347 1809 1346.13066"></polygon>
                    <polygon id="Stroke-390" points="2254.13662 1039.31686 2508 1039 2434.31379 1348 2121 1347.1239"></polygon>
                    <polygon id="Stroke-391" points="2506.63138 1038.31811 2762 1038 2748.6673 1348 2433 1347.1179"></polygon>
                    <polygon id="Stroke-392" points="2762.32068 1038.32111 3019.16855 1038 3067 1350 2749 1349.10761"></polygon>
                    <polygon id="Stroke-393" points="3019 1038.32308 3278.64162 1038 3389 1351 3067.0279 1350.10167"></polygon>
                    <polygon id="Stroke-394" points="3280 1038.32503 3540.77652 1038 3714 1352 3390.09824 1351.09503"></polygon>
                    <polygon id="Stroke-395" points="3539 1036.32697 3801.09773 1036 4038 1351 3711.93 1350.08769"></polygon>
                    <polygon id="Stroke-396" points="3802 1036.33098 4066.00793 1036 4368 1354 4039.01725 1353.0753"></polygon>
                </g>
            </g>
        </g>
    </g>
</svg>