<?xml version="1.0" encoding="UTF-8"?>
<svg width="19px" height="198px" viewBox="0 0 19 198" version="1.1" xmlns="http://www.w3.org/2000/svg" xmlns:xlink="http://www.w3.org/1999/xlink">
    <!-- Generator: Sketch 51.3 (57544) - http://www.bohemiancoding.com/sketch -->
    <title>边框装饰</title>
    <desc>Created with Sketch.</desc>
    <defs></defs>
    <g id="Page-1" stroke="none" stroke-width="1" fill="none" fill-rule="evenodd">
        <g id="态势分析" transform="translate(-20.000000, -114.000000)">
            <g id="内容" transform="translate(18.000000, -183.000000)">
                <g id="人口感知" transform="translate(2.000000, 281.000000)">
                    <g id="Group-4">
                        <g id="边框装饰" transform="translate(0.000000, 14.000000)">
                            <g id="Group-17" transform="translate(0.000000, 5.970149)">
                                <polygon id="Rectangle" fill="#00C0FF" transform="translate(14.140537, 118.683783) rotate(-180.000000) translate(-14.140537, -118.683783) " points="9.35999989 43.860696 15.3210736 50.1357435 15.3210736 53.9329491 18.9210735 57.2631106 18.9210735 66.6500568 15.3210736 69.4180573 15.3210736 187.231822 9.35999989 193.50687"></polygon>
                                <polygon id="Rectangle" fill="#39CEFF" opacity="0.302176339" transform="translate(6.580537, 126.292528) scale(1, -1) rotate(-180.000000) translate(-6.580537, -126.292528) " points="5.96855898e-12 122.666665 8.80151783 113.084521 8.80151783 70.0994474 13.1610736 65.3532331 13.1610736 172.903464 7.93306751e-12 187.231822"></polygon>
                                <g id="Group-9" fill="#00ABFF" fill-rule="nonzero">
                                    <path id="Path-12" d="M17.0449921,-2.81133722 C15.5154435,-4.25038333 13.0922055,-4.15553175 11.6323623,-2.60387818 C10.1725192,-1.05222462 10.2254593,1.37229112 11.7550079,2.81133722 C13.2845565,4.25038333 15.7077945,4.15553175 17.1676377,2.60387818 C18.6274808,1.05222462 18.5745407,-1.37229112 17.0449921,-2.81133722 Z M16.5516257,-2.28694272 C17.7895101,-1.12230314 17.8324988,0.846463094 16.6432432,2.11051179 C15.4539875,3.37456049 13.4862588,3.4515823 12.2483743,2.28694272 C11.0104899,1.12230314 10.9675012,-0.846463094 12.1567568,-2.11051179 C13.3460125,-3.37456049 15.3137412,-3.4515823 16.5516257,-2.28694272 Z M0.759999996,173.134328 L0.759999996,14.8804685 L0.662197251,15.1271517 L12.272366,2.78681235 L11.7479715,2.29344596 L0.137802749,14.6337853 L0.0400000042,14.737739 L0.0400000042,14.8804685 L0.0400000042,173.134328 L0.759999996,173.134328 Z"></path>
                                </g>
                            </g>
                        </g>
                    </g>
                </g>
            </g>
        </g>
    </g>
</svg>