<?xml version="1.0" encoding="UTF-8"?>
<svg width="480px" height="501px" viewBox="0 0 480 501" version="1.1" xmlns="http://www.w3.org/2000/svg" xmlns:xlink="http://www.w3.org/1999/xlink">
    <!-- Generator: Sketch 51.3 (57544) - http://www.bohemiancoding.com/sketch -->
    <title>边框</title>
    <desc>Created with Sketch.</desc>
    <defs>
        <rect id="path-1" x="488" y="0" width="1920" height="1080"></rect>
        <path d="M743.261726,829.170512 C732.166236,888.925267 660.380912,918.802644 527.905753,918.802644 C329.193015,918.802644 22.5158502,972.682952 -23.5797372,996.416111" id="path-3"></path>
        <filter x="-0.9%" y="-4.2%" width="101.8%" height="108.4%" filterUnits="objectBoundingBox" id="filter-4">
            <feMorphology radius="2" operator="erode" in="SourceAlpha" result="shadowSpreadInner1"></feMorphology>
            <feGaussianBlur stdDeviation="5.5" in="shadowSpreadInner1" result="shadowBlurInner1"></feGaussianBlur>
            <feOffset dx="0" dy="1" in="shadowBlurInner1" result="shadowOffsetInner1"></feOffset>
            <feComposite in="shadowOffsetInner1" in2="SourceAlpha" operator="arithmetic" k2="-1" k3="1" result="shadowInnerInner1"></feComposite>
            <feColorMatrix values="0 0 0 0 0   0 0 0 0 0.564028533   0 0 0 0 1  0 0 0 0.984941123 0" type="matrix" in="shadowInnerInner1"></feColorMatrix>
        </filter>
        <path d="M728.983988,309.651089 C702.02175,394.553511 611.463645,430.220178 457.309674,416.651089 C226.078717,396.297455 35.1415324,374.606588 -82.9782866,417.33974" id="path-5"></path>
        <filter x="-0.9%" y="-6.4%" width="101.7%" height="112.7%" filterUnits="objectBoundingBox" id="filter-6">
            <feMorphology radius="2" operator="erode" in="SourceAlpha" result="shadowSpreadInner1"></feMorphology>
            <feGaussianBlur stdDeviation="5.5" in="shadowSpreadInner1" result="shadowBlurInner1"></feGaussianBlur>
            <feOffset dx="0" dy="1" in="shadowBlurInner1" result="shadowOffsetInner1"></feOffset>
            <feComposite in="shadowOffsetInner1" in2="SourceAlpha" operator="arithmetic" k2="-1" k3="1" result="shadowInnerInner1"></feComposite>
            <feColorMatrix values="0 0 0 0 0   0 0 0 0 0.129755435   0 0 0 0 1  0 0 0 0.984941123 0" type="matrix" in="shadowInnerInner1"></feColorMatrix>
        </filter>
        <path d="M127.525939,108.952833 C127.784232,109.208958 128.038695,109.461242 128.28956,109.709913 C128.180316,109.601667 127.93447,109.357935 127.525939,108.952833 Z M128.28956,109.709913 C132.289195,113.674575 135.373897,116.72057 138.473459,119.761316 C156.997141,137.9335 172.1518,151.994085 188.407939,165.712271 C216.51,189.426962 245.045264,209.456268 276.142336,226.431037 C364.189636,274.49288 429.739735,273.418862 474.654321,224.451547 C477.267549,221.602522 481.69558,221.411371 484.544605,224.024599 C487.39363,226.637828 487.584781,231.065858 484.971553,233.914883 C435.02679,288.366257 362.560553,289.553595 269.43453,238.71946 C237.459103,221.265229 208.162949,200.701843 179.37895,176.41168 C162.814468,162.43329 147.42146,148.151564 128.669238,129.755176 C125.547616,126.692789 122.445281,123.629369 118.426203,119.64542 C119.421931,120.632066 109.430328,110.721004 107.245001,108.560145 C99.1684081,100.57398 93.4104325,94.9857841 87.9610842,89.8924162 C60.7405271,64.4500506 43.4989967,54.3846015 27.6721941,56.0480655 C23.8273792,56.4521719 20.3829479,53.6629264 19.9788416,49.8181115 C19.5747352,45.9732966 22.3639807,42.5288653 26.2087956,42.124759 C37.7163624,40.915265 49.3080533,44.1215783 61.7777623,51.4012812 C72.2707811,57.5270104 83.3913161,66.4579526 97.5208694,79.6644884 C103.08628,84.8663368 108.926435,90.5342889 117.088609,98.6050775 C119.28024,100.77217 129.268405,110.679812 128.28956,109.709913 Z M117.668259,118.893967 C117.924576,119.148132 118.177149,119.398543 118.426203,119.64542 C118.316172,119.536393 118.071977,119.294296 117.668259,118.893967 Z" id="path-7"></path>
        <filter x="-1.5%" y="-3.0%" width="103.0%" height="106.0%" filterUnits="objectBoundingBox" id="filter-8">
            <feMorphology radius="2" operator="erode" in="SourceAlpha" result="shadowSpreadInner1"></feMorphology>
            <feGaussianBlur stdDeviation="5.5" in="shadowSpreadInner1" result="shadowBlurInner1"></feGaussianBlur>
            <feOffset dx="0" dy="1" in="shadowBlurInner1" result="shadowOffsetInner1"></feOffset>
            <feComposite in="shadowOffsetInner1" in2="SourceAlpha" operator="arithmetic" k2="-1" k3="1" result="shadowInnerInner1"></feComposite>
            <feColorMatrix values="0 0 0 0 0   0 0 0 0 0.26341712   0 0 0 0 1  0 0 0 0.984941123 0" type="matrix" in="shadowInnerInner1"></feColorMatrix>
        </filter>
        <filter x="-11.5%" y="-10.6%" width="122.9%" height="122.0%" filterUnits="objectBoundingBox" id="filter-9">
            <feOffset dx="0" dy="2" in="SourceAlpha" result="shadowOffsetOuter1"></feOffset>
            <feGaussianBlur stdDeviation="18" in="shadowOffsetOuter1" result="shadowBlurOuter1"></feGaussianBlur>
            <feColorMatrix values="0 0 0 0 0.0415101532   0 0 0 0 0.0415101532   0 0 0 0 0.373458759  0 0 0 0.685914855 0" type="matrix" in="shadowBlurOuter1" result="shadowMatrixOuter1"></feColorMatrix>
            <feMerge>
                <feMergeNode in="shadowMatrixOuter1"></feMergeNode>
                <feMergeNode in="SourceGraphic"></feMergeNode>
            </feMerge>
        </filter>
        <path d="M13.8403764,0 L464.283116,0 L480,14.0947715 L480,121.159286 L480,483.820694 L463.452863,500 L13.8403764,500 L0,485.263694 L0,13.2603511 L13.8403764,0 Z" id="path-10"></path>
        <filter x="-2.0%" y="-1.9%" width="104.0%" height="103.8%" filterUnits="objectBoundingBox" id="filter-11">
            <feGaussianBlur stdDeviation="9" in="SourceAlpha" result="shadowBlurInner1"></feGaussianBlur>
            <feOffset dx="0" dy="1" in="shadowBlurInner1" result="shadowOffsetInner1"></feOffset>
            <feComposite in="shadowOffsetInner1" in2="SourceAlpha" operator="arithmetic" k2="-1" k3="1" result="shadowInnerInner1"></feComposite>
            <feColorMatrix values="0 0 0 0 0   0 0 0 0 0.305882353   0 0 0 0 1  0 0 0 1 0" type="matrix" in="shadowInnerInner1" result="shadowMatrixInner1"></feColorMatrix>
            <feGaussianBlur stdDeviation="4" in="SourceAlpha" result="shadowBlurInner2"></feGaussianBlur>
            <feOffset dx="0" dy="1" in="shadowBlurInner2" result="shadowOffsetInner2"></feOffset>
            <feComposite in="shadowOffsetInner2" in2="SourceAlpha" operator="arithmetic" k2="-1" k3="1" result="shadowInnerInner2"></feComposite>
            <feColorMatrix values="0 0 0 0 0.401219223   0 0 0 0 0.584375696   0 0 0 0 1  0 0 0 1 0" type="matrix" in="shadowInnerInner2" result="shadowMatrixInner2"></feColorMatrix>
            <feMerge>
                <feMergeNode in="shadowMatrixInner1"></feMergeNode>
                <feMergeNode in="shadowMatrixInner2"></feMergeNode>
            </feMerge>
        </filter>
        <path d="M13.8403764,0 L464.283116,0 L480,14.0947715 L480,121.159286 L480,483.820694 L463.452863,500 L13.8403764,500 L0,485.263694 L0,13.2603511 L13.8403764,0 Z" id="path-12"></path>
        <filter x="-2.0%" y="-1.9%" width="104.0%" height="103.8%" filterUnits="objectBoundingBox" id="filter-13">
            <feGaussianBlur stdDeviation="9" in="SourceAlpha" result="shadowBlurInner1"></feGaussianBlur>
            <feOffset dx="0" dy="1" in="shadowBlurInner1" result="shadowOffsetInner1"></feOffset>
            <feComposite in="shadowOffsetInner1" in2="SourceAlpha" operator="arithmetic" k2="-1" k3="1" result="shadowInnerInner1"></feComposite>
            <feColorMatrix values="0 0 0 0 0   0 0 0 0 0.305882353   0 0 0 0 1  0 0 0 1 0" type="matrix" in="shadowInnerInner1" result="shadowMatrixInner1"></feColorMatrix>
            <feGaussianBlur stdDeviation="4" in="SourceAlpha" result="shadowBlurInner2"></feGaussianBlur>
            <feOffset dx="0" dy="1" in="shadowBlurInner2" result="shadowOffsetInner2"></feOffset>
            <feComposite in="shadowOffsetInner2" in2="SourceAlpha" operator="arithmetic" k2="-1" k3="1" result="shadowInnerInner2"></feComposite>
            <feColorMatrix values="0 0 0 0 0.401219223   0 0 0 0 0.584375696   0 0 0 0 1  0 0 0 1 0" type="matrix" in="shadowInnerInner2" result="shadowMatrixInner2"></feColorMatrix>
            <feMerge>
                <feMergeNode in="shadowMatrixInner1"></feMergeNode>
                <feMergeNode in="shadowMatrixInner2"></feMergeNode>
            </feMerge>
        </filter>
        <linearGradient x1="50%" y1="1.95578429%" x2="50%" y2="96.2419716%" id="linearGradient-14">
            <stop stop-color="#F79584" stop-opacity="0.4" offset="0%"></stop>
            <stop stop-color="#F79584" stop-opacity="0" offset="100%"></stop>
        </linearGradient>
    </defs>
    <g id="Page-1" stroke="none" stroke-width="1" fill="none" fill-rule="evenodd">
        <g id="态势分析" transform="translate(-39.000000, -129.000000)">
            <rect fill="#1B223F" x="0" y="0" width="1920" height="1080"></rect>
            <g id="背景" transform="translate(-488.000000, 0.000000)">
                <mask id="mask-2" fill="white">
                    <use xlink:href="#path-1"></use>
                </mask>
                <use id="Mask" fill="#03062A" xlink:href="#path-1"></use>
                <g id="Group-404" opacity="0.304141" mask="url(#mask-2)" stroke="#6D9EAF" stroke-width="0.5">
                    <g transform="translate(-1516.000000, -136.000000)">
                        <polygon id="Stroke-223" points="1997.69862 253.155532 2097 252 2038.25708 294.811348 1931 296"></polygon>
                        <polygon id="Stroke-224" points="2095.6301 252.159271 2195 251 2144.35426 293.807586 2037 295"></polygon>
                        <polygon id="Stroke-225" points="2194.21583 251.163733 2293 250 2250.74359 292.803102 2144 294"></polygon>
                        <polygon id="Stroke-226" points="2294.76486 250.166784 2395 249 2360.33442 291.798552 2252 293"></polygon>
                        <polygon id="Stroke-227" points="2394.62357 249.143974 2495 248 2468.51067 289.822125 2360 291"></polygon>
                        <polygon id="Stroke-228" points="2495.46224 248.148389 2596 247 2577.70768 288.817686 2469 290"></polygon>
                        <polygon id="Stroke-244" points="2036.23719 294.20257 2144 293 2084.17718 343.769964 1967 345"></polygon>
                        <polygon id="Stroke-245" points="2145.50523 294.206107 2253 293 2202.91484 343.764929 2086 345"></polygon>
                        <polygon id="Stroke-246" points="2252.12169 293.210408 2360 292 2319.3616 342.760613 2202 344"></polygon>
                        <polygon id="Stroke-247" points="2358.68665 292.213988 2467 291 2435.86432 341.756276 2318 343"></polygon>
                        <polygon id="Stroke-248" points="2468.9671 291.218314 2577 290 2555.58971 340.752678 2438 342"></polygon>
                        <polygon id="Stroke-264" points="1967.88514 344.193102 2084 343 2013.22926 401.789617 1886 403"></polygon>
                        <polygon id="Stroke-265" points="2084.43472 343.197681 2202 342 2141.85822 400.786475 2013 402"></polygon>
                        <polygon id="Stroke-266" points="2202.11829 342.201542 2320 341 2271.24301 399.78189 2142 401"></polygon>
                        <polygon id="Stroke-267" points="2317.46409 341.205404 2435 340 2397.90274 398.776584 2269 400"></polygon>
                        <polygon id="Stroke-268" points="2436.09798 341.209297 2554 340 2528.34359 398.772686 2399 400"></polygon>
                        <polygon id="Stroke-285" points="2013.113 405.203581 2141 404 2068.47599 474.799988 1927 476"></polygon>
                        <polygon id="Stroke-286" points="2140.58043 404.207733 2269 403 2210.11699 473.795122 2068 475"></polygon>
                        <polygon id="Stroke-287" points="2271.27865 401.211194 2401 400 2355.60933 470.790234 2212 472"></polygon>
                        <polygon id="Stroke-288" points="2398.98928 399.215368 2528 398 2496.87571 468.78606 2354 470"></polygon>
                        <polygon id="Stroke-289" points="2530.40106 398.219541 2661 397 2643.68689 467.781173 2499 469"></polygon>
                        <polygon id="Stroke-305" points="1926.12107 476.226722 2068 475 1977.7456 564.813415 1819 566"></polygon>
                        <polygon id="Stroke-306" points="2068.99629 475.231218 2211 474 2137.95787 563.808899 1979 565"></polygon>
                        <polygon id="Stroke-307" points="2212.18469 474.248562 2355 473 2298.93856 563.791976 2139 565"></polygon>
                        <polygon id="Stroke-308" points="2354.22594 472.252372 2498 471 2459.08541 561.786672 2298 563"></polygon>
                        <polygon id="Stroke-309" points="2497.86547 470.256925 2642 469 2620.56317 559.782837 2459 561"></polygon>
                        <polygon id="Stroke-326" points="1978.65218 564.195718 2139 563 2045.08616 677.914115 1863 679"></polygon>
                        <polygon id="Stroke-327" points="2138.56833 563.199654 2299 562 2227.28748 676.910802 2045 678"></polygon>
                        <polygon id="Stroke-328" points="2298.45989 562.203583 2459 561 2409.51602 675.906763 2227 677"></polygon>
                        <polygon id="Stroke-329" points="2459.55373 562.206774 2621 561 2593.65368 675.902003 2410 677"></polygon>
                        <polygon id="Stroke-346" points="1864.70264 679.082802 2046 678 1922.73043 829.162691 1713 830"></polygon>
                        <polygon id="Stroke-347" points="2044.49713 678.086121 2227 677 2132.2858 828.158968 1921 829"></polygon>
                        <polygon id="Stroke-348" points="2227.34216 677.089433 2410 676 2344.62735 827.156709 2133 828"></polygon>
                        <polygon id="Stroke-349" points="2411.3962 676.093447 2595 675 2558.88591 826.153015 2346 827"></polygon>
                    </g>
                </g>
            </g>
            <g id="内容" transform="translate(18.000000, -183.000000)">
                <g id="中间背景" transform="translate(317.000000, 111.000000)">
                    <g transform="translate(57.000000, 0.000000)" fill-rule="nonzero" id="Path-17">
                        <g opacity="0.693917" style="mix-blend-mode: overlay;" transform="translate(359.840994, 912.793312) rotate(-40.000000) translate(-359.840994, -912.793312) ">
                            <use fill-opacity="0" fill="#01A9FE" xlink:href="#path-3"></use>
                            <use fill="black" fill-opacity="1" filter="url(#filter-4)" xlink:href="#path-3"></use>
                        </g>
                        <g opacity="0.303795" transform="translate(323.002851, 364.553424) rotate(55.000000) translate(-323.002851, -364.553424) ">
                            <use fill-opacity="0" fill="#01A9FE" xlink:href="#path-5"></use>
                            <use fill="black" fill-opacity="1" filter="url(#filter-6)" xlink:href="#path-5"></use>
                        </g>
                    </g>
                    <g id="传输管" transform="translate(0.000000, 342.000000)">
                        <g id="Group-30" transform="translate(145.573896, 216.777778)">
                            <g id="Group-62"></g>
                        </g>
                        <g id="Group-29" transform="translate(396.742847, 189.466885) rotate(6.000000) translate(-396.742847, -189.466885) translate(153.242847, 24.966885)" fill-rule="nonzero" opacity="0.4">
                            <g id="Group-63">
                                <g id="Path-3">
                                    <use fill-opacity="0" fill="#01A9FE" xlink:href="#path-7"></use>
                                    <use fill="black" fill-opacity="1" filter="url(#filter-8)" xlink:href="#path-7"></use>
                                </g>
                            </g>
                        </g>
                    </g>
                </g>
                <g id="人口感知" transform="translate(2.000000, 281.000000)">
                    <g id="Group-4">
                        <g id="Group-5" transform="translate(19.000000, 0.000000)">
                            <g id="Group-3" filter="url(#filter-9)" transform="translate(0.000000, 31.360000)">
                                <g id="边框" transform="translate(0.000000, 0.000000)" opacity="0.5">
                                    <g id="Rectangle-10-Copy-29">
                                        <use fill="#1F2D6B" fill-rule="evenodd" xlink:href="#path-10"></use>
                                        <use fill="black" fill-opacity="1" filter="url(#filter-11)" xlink:href="#path-10"></use>
                                    </g>
                                </g>
                                <g id="边框" opacity="0.5">
                                    <g id="Rectangle-10-Copy-29">
                                        <use fill="#1F2D6B" fill-rule="evenodd" xlink:href="#path-12"></use>
                                        <use fill="black" fill-opacity="1" filter="url(#filter-13)" xlink:href="#path-12"></use>
                                    </g>
                                </g>
                                <g id="Group-25" stroke="#00C0FF">
                                    <path d="M425.045932,0.5 L479.5,118.875931 L479.5,14.3179848 L464.091757,0.5 L425.045932,0.5 Z M479.5,445.950653 L321.623267,499.5 L463.249041,499.5 L479.5,483.610287 L479.5,445.950653 Z M49.3737896,499.5 L0.5,312.946213 L0.5,485.065709 L14.0567237,499.5 L49.3737896,499.5 Z M0.5,57.0921834 L204.996489,0.5 L14.0412429,0.5 L0.5,13.4737537 L0.5,57.0921834 Z" id="Rectangle-10-Copy-29"></path>
                                </g>
                            </g>
                            <g id="Group-4-Copy" transform="translate(14.400000, 5.440000)"></g>
                        </g>
                    </g>
                    <g id="Group-4-Copy-2" transform="translate(335.000000, 83.000000)">
                        <g id="Group-2" transform="translate(7.000000, 0.000000)">
                            <path d="M65,130 C29.1014913,130 -8.79259876e-15,100.898509 0,65 C8.79259876e-15,29.1014913 29.1014913,-7.08304509e-15 65,1.70955367e-15 C100.898509,1.05021524e-14 130,29.1014913 130,65 C130,100.898509 100.898509,130 65,130 Z M65,121 C95.927946,121 121,95.927946 121,65 C121,34.072054 95.927946,9 65,9 C34.072054,9 9,34.072054 9,65 C9,95.927946 34.072054,121 65,121 Z" id="Combined-Shape" fill="#D8D8D8" opacity="0.07421875"></path>
                            <path d="M-33.9319953,95.9999694 C-32.3644188,61.4940754 -3.89300165,34.0000007 31.0000007,34.0000007 C65.8930031,34.0000007 94.3644202,61.4940754 95.9319967,95.9999694 L86.921016,96.0000007 C85.3620681,66.4668719 60.9215251,43.0000007 31.0000007,43.0000007 C1.07847628,43.0000007 -23.3620667,66.4668719 -24.9210145,96.0000007 L-33.9319967,96.0000007 Z" id="Combined-Shape" fill="#FF8873" transform="translate(31.000000, 65.000001) rotate(-90.000000) translate(-31.000000, -65.000001) "></path>
                            <circle id="Oval-6" fill="#FF8873" cx="62.5" cy="4.5" r="4.5"></circle>
                            <circle id="Oval-6-Copy" fill="#FF8873" cx="62.5" cy="125.5" r="4.5"></circle>
                        </g>
                        <text id="当日小区通行占比" font-family="PingFangSC-Semibold, PingFang SC" font-size="18" font-weight="500" fill="#C4F1FF">
                            <tspan x="0" y="159">当日小区通行占比</tspan>
                        </text>
                        <text id="45.8%" font-family="DIN-Medium, DIN" font-size="28" font-weight="400" fill="#FFFFFF">
                            <tspan x="33.934" y="75">45.8%</tspan>
                        </text>
                    </g>
                    <g id="Group-4-Copy-3" transform="translate(335.000000, 317.000000)">
                        <g id="Group-2" transform="translate(7.000000, 0.000000)">
                            <path d="M65,130 C29.1014913,130 -8.79259876e-15,100.898509 0,65 C8.79259876e-15,29.1014913 29.1014913,-7.08304509e-15 65,1.70955367e-15 C100.898509,1.05021524e-14 130,29.1014913 130,65 C130,100.898509 100.898509,130 65,130 Z M65,121 C95.927946,121 121,95.927946 121,65 C121,34.072054 95.927946,9 65,9 C34.072054,9 9,34.072054 9,65 C9,95.927946 34.072054,121 65,121 Z" id="Combined-Shape" fill="#D8D8D8" opacity="0.07421875"></path>
                            <path d="M-33.9319953,95.9999694 C-32.3644188,61.4940754 -3.89300165,34.0000007 31.0000007,34.0000007 C65.8930031,34.0000007 94.3644202,61.4940754 95.9319967,95.9999694 L86.921016,96.0000007 C85.3620681,66.4668719 60.9215251,43.0000007 31.0000007,43.0000007 C1.07847628,43.0000007 -23.3620667,66.4668719 -24.9210145,96.0000007 L-33.9319967,96.0000007 Z" id="Combined-Shape" fill="#81E296" transform="translate(31.000000, 65.000001) rotate(-90.000000) translate(-31.000000, -65.000001) "></path>
                            <circle id="Oval-6" fill="#81E296" cx="62.5" cy="4.5" r="4.5"></circle>
                            <circle id="Oval-6-Copy" fill="#81E296" cx="62.5" cy="125.5" r="4.5"></circle>
                        </g>
                        <text id="当日住户情况占比" font-family="PingFangSC-Semibold, PingFang SC" font-size="18" font-weight="500" fill="#C4F1FF">
                            <tspan x="0" y="159">当日住户情况占比</tspan>
                        </text>
                        <text id="45.8%" font-family="DIN-Medium, DIN" font-size="28" font-weight="400" fill="#FFFFFF">
                            <tspan x="33.934" y="75">45.8%</tspan>
                        </text>
                    </g>
                    <g id="Group-54" transform="translate(39.000000, 305.000000)">
                        <g id="Group-12-Copy-2">
                            <text id="本小区通行人次" font-family="PingFangSC-Semibold, PingFang SC" font-size="18" font-weight="500" fill="#FFFFFF">
                                <tspan x="36" y="19">本小区通行人次</tspan>
                            </text>
                            <circle id="Oval-2" fill="#0092C2" cx="5" cy="12" r="5"></circle>
                        </g>
                        <text id="0-copy-4" font-family="DIN-Regular, DIN" font-size="12" font-weight="normal" line-spacing="10" fill="#1286D7">
                            <tspan x="36" y="178">0</tspan>
                        </text>
                        <text id="10-copy-3" font-family="DIN-Regular, DIN" font-size="12" font-weight="normal" line-spacing="10" fill="#1286D7">
                            <tspan x="110" y="178">10</tspan>
                        </text>
                        <text id="2-copy-3" font-family="DIN-Regular, DIN" font-size="12" font-weight="normal" line-spacing="10" fill="#1286D7">
                            <tspan x="51" y="178">2</tspan>
                        </text>
                        <text id="12-copy-3" font-family="DIN-Regular, DIN" font-size="12" font-weight="normal" line-spacing="10" fill="#1286D7">
                            <tspan x="132" y="178">12</tspan>
                        </text>
                        <text id="4-copy-3" font-family="DIN-Regular, DIN" font-size="12" font-weight="normal" line-spacing="10" fill="#1286D7">
                            <tspan x="66" y="178">4</tspan>
                        </text>
                        <text id="14-copy-3" font-family="DIN-Regular, DIN" font-size="12" font-weight="normal" line-spacing="10" fill="#1286D7">
                            <tspan x="153" y="178">14</tspan>
                        </text>
                        <text id="6-copy-3" font-family="DIN-Regular, DIN" font-size="12" font-weight="normal" line-spacing="10" fill="#1286D7">
                            <tspan x="80" y="178">6</tspan>
                        </text>
                        <text id="16-copy-3" font-family="DIN-Regular, DIN" font-size="12" font-weight="normal" line-spacing="10" fill="#1286D7">
                            <tspan x="175" y="178">16</tspan>
                        </text>
                        <text id="8-copy-3" font-family="DIN-Regular, DIN" font-size="12" font-weight="normal" line-spacing="10" fill="#1286D7">
                            <tspan x="95" y="178">8</tspan>
                        </text>
                        <text id="18-copy-3" font-family="DIN-Regular, DIN" font-size="12" font-weight="normal" line-spacing="10" fill="#1286D7">
                            <tspan x="197" y="178">18</tspan>
                        </text>
                        <text id="20-copy-3" font-family="DIN-Regular, DIN" font-size="12" font-weight="normal" line-spacing="10" fill="#1286D7">
                            <tspan x="219" y="178">20</tspan>
                        </text>
                        <text id="22-copy-3" font-family="DIN-Regular, DIN" font-size="12" font-weight="normal" line-spacing="10" fill="#1286D7">
                            <tspan x="240" y="178">22</tspan>
                        </text>
                        <text id="24-copy-3" font-family="DIN-Regular, DIN" font-size="12" font-weight="normal" line-spacing="10" fill="#1286D7">
                            <tspan x="262" y="178">24</tspan>
                        </text>
                        <text id="0-copy" font-family="DIN-Regular, DIN" font-size="12" font-weight="normal" line-spacing="10" fill="#1286D7">
                            <tspan x="0" y="160">0</tspan>
                        </text>
                        <text id="25-copy-2" font-family="DIN-Regular, DIN" font-size="12" font-weight="normal" line-spacing="10" fill="#1286D7">
                            <tspan x="0" y="132">25</tspan>
                        </text>
                        <text id="50-copy" font-family="DIN-Regular, DIN" font-size="12" font-weight="normal" line-spacing="10" fill="#1286D7">
                            <tspan x="0" y="106">50</tspan>
                        </text>
                        <text id="75-copy" font-family="DIN-Regular, DIN" font-size="12" font-weight="normal" line-spacing="10" fill="#1286D7">
                            <tspan x="0" y="80">75</tspan>
                        </text>
                        <text id="100-copy" font-family="DIN-Regular, DIN" font-size="12" font-weight="normal" line-spacing="10" fill="#1286D7">
                            <tspan x="0" y="54">100</tspan>
                        </text>
                        <rect id="Rectangle-7-Copy-11" fill="#3B349E" x="36" y="153" width="240" height="1"></rect>
                        <rect id="Rectangle-7-Copy-12" fill="#3B349E" x="36" y="125" width="240" height="1"></rect>
                        <rect id="Rectangle-7-Copy-13" fill="#3B349E" x="36" y="99" width="240" height="1"></rect>
                        <rect id="Rectangle-7-Copy-14" fill="#3B349E" x="36" y="73" width="240" height="1"></rect>
                        <rect id="Rectangle-7-Copy-15" fill="#3B349E" x="36" y="47" width="240" height="1"></rect>
                        <rect id="Rectangle-17-Copy-36" fill="#37BAE4" x="226" y="104" width="8" height="50" rx="1"></rect>
                        <rect id="Rectangle-17-Copy-37" fill="#37BAE4" x="247" y="96" width="8" height="58" rx="1"></rect>
                        <rect id="Rectangle-17-Copy-38" fill="#37BAE4" x="268" y="108" width="8" height="46" rx="1"></rect>
                        <rect id="Rectangle-17-Copy-39" fill="#37BAE4" x="36" y="98" width="8" height="56" rx="1"></rect>
                        <rect id="Rectangle-17-Copy-40" fill="#37BAE4" x="57" y="96" width="8" height="58" rx="1"></rect>
                        <rect id="Rectangle-17-Copy-41" fill="#37BAE4" x="78" y="110" width="8" height="44" rx="1"></rect>
                        <rect id="Rectangle-17-Copy-42" fill="#37BAE4" x="99" y="96" width="8" height="58" rx="1"></rect>
                        <rect id="Rectangle-17-Copy-43" fill="#37BAE4" x="141" y="96" width="8" height="58" rx="1"></rect>
                        <rect id="Rectangle-17-Copy-44" fill="#37BAE4" x="163" y="101" width="8" height="53" rx="1"></rect>
                        <rect id="Rectangle-17-Copy-45" fill="#4AD3FF" x="184" y="57" width="8" height="97" rx="1"></rect>
                        <rect id="Rectangle-17-Copy-46" fill="#37BAE4" x="205" y="119" width="8" height="35" rx="1"></rect>
                        <rect id="Rectangle-17-Copy-47" fill="#37BAE4" x="120" y="67" width="8" height="87" rx="1"></rect>
                    </g>
                    <g id="Group-53" transform="translate(39.000000, 71.000000)">
                        <g id="Group-12">
                            <text id="当前人流分析" font-family="PingFangSC-Semibold, PingFang SC" font-size="18" font-weight="500" fill="#FFFFFF">
                                <tspan x="28" y="19">当前人流分析</tspan>
                            </text>
                            <circle id="Oval-2" fill="#0092C2" cx="5" cy="12" r="5"></circle>
                        </g>
                        <text id="0-copy" font-family="DIN-Regular, DIN" font-size="12" font-weight="normal" line-spacing="10" fill="#1286D7">
                            <tspan x="0" y="160">0</tspan>
                        </text>
                        <text id="0" font-family="DIN-Regular, DIN" font-size="12" font-weight="normal" line-spacing="10" fill="#1286D7">
                            <tspan x="36" y="178">0</tspan>
                        </text>
                        <text id="10" font-family="DIN-Regular, DIN" font-size="12" font-weight="normal" line-spacing="10" fill="#1286D7">
                            <tspan x="110" y="178">10</tspan>
                        </text>
                        <text id="2" font-family="DIN-Regular, DIN" font-size="12" font-weight="normal" line-spacing="10" fill="#1286D7">
                            <tspan x="51" y="178">2</tspan>
                        </text>
                        <text id="12" font-family="DIN-Regular, DIN" font-size="12" font-weight="normal" line-spacing="10" fill="#1286D7">
                            <tspan x="132" y="178">12</tspan>
                        </text>
                        <text id="4" font-family="DIN-Regular, DIN" font-size="12" font-weight="normal" line-spacing="10" fill="#1286D7">
                            <tspan x="66" y="178">4</tspan>
                        </text>
                        <text id="14" font-family="DIN-Regular, DIN" font-size="12" font-weight="normal" line-spacing="10" fill="#1286D7">
                            <tspan x="153" y="178">14</tspan>
                        </text>
                        <text id="6" font-family="DIN-Regular, DIN" font-size="12" font-weight="normal" line-spacing="10" fill="#1286D7">
                            <tspan x="80" y="178">6</tspan>
                        </text>
                        <text id="16" font-family="DIN-Regular, DIN" font-size="12" font-weight="normal" line-spacing="10" fill="#1286D7">
                            <tspan x="175" y="178">16</tspan>
                        </text>
                        <text id="8" font-family="DIN-Regular, DIN" font-size="12" font-weight="normal" line-spacing="10" fill="#1286D7">
                            <tspan x="95" y="178">8</tspan>
                        </text>
                        <text id="18" font-family="DIN-Regular, DIN" font-size="12" font-weight="normal" line-spacing="10" fill="#1286D7">
                            <tspan x="197" y="178">18</tspan>
                        </text>
                        <text id="20" font-family="DIN-Regular, DIN" font-size="12" font-weight="normal" line-spacing="10" fill="#1286D7">
                            <tspan x="219" y="178">20</tspan>
                        </text>
                        <text id="22" font-family="DIN-Regular, DIN" font-size="12" font-weight="normal" line-spacing="10" fill="#1286D7">
                            <tspan x="240" y="178">22</tspan>
                        </text>
                        <text id="24" font-family="DIN-Regular, DIN" font-size="12" font-weight="normal" line-spacing="10" fill="#1286D7">
                            <tspan x="262" y="178">24</tspan>
                        </text>
                        <text id="25-copy-2" font-family="DIN-Regular, DIN" font-size="12" font-weight="normal" line-spacing="10" fill="#1286D7">
                            <tspan x="0" y="132">25</tspan>
                        </text>
                        <text id="50-copy" font-family="DIN-Regular, DIN" font-size="12" font-weight="normal" line-spacing="10" fill="#1286D7">
                            <tspan x="0" y="106">50</tspan>
                        </text>
                        <text id="75-copy" font-family="DIN-Regular, DIN" font-size="12" font-weight="normal" line-spacing="10" fill="#1286D7">
                            <tspan x="0" y="80">75</tspan>
                        </text>
                        <text id="100-copy" font-family="DIN-Regular, DIN" font-size="12" font-weight="normal" line-spacing="10" fill="#1286D7">
                            <tspan x="0" y="54">100</tspan>
                        </text>
                        <rect id="Rectangle-7-Copy-11" fill="#3B349E" x="36" y="153" width="240" height="1"></rect>
                        <rect id="Rectangle-7-Copy-12" fill="#3B349E" x="36" y="125" width="240" height="1"></rect>
                        <rect id="Rectangle-7-Copy-13" fill="#3B349E" x="36" y="99" width="240" height="1"></rect>
                        <rect id="Rectangle-7-Copy-14" fill="#3B349E" x="36" y="73" width="240" height="1"></rect>
                        <rect id="Rectangle-7-Copy-15" fill="#3B349E" x="36" y="47" width="240" height="1"></rect>
                        <g id="Group-4-Copy-4" transform="translate(189.000000, 14.000000)" fill="#5564FF">
                            <rect id="Rectangle-4" x="0" y="0" width="66" height="36" rx="3"></rect>
                            <polygon id="Triangle" points="32.75 39 29 35.5 36.5 35.5"></polygon>
                        </g>
                        <text id="2018-copy-3" font-family="DIN-Medium, DIN" font-size="16" font-weight="400" line-spacing="10" fill="#FFFFFF">
                            <tspan x="204" y="45">2018</tspan>
                        </text>
                        <path d="M36,77.6057838 C39.9116265,70.2260916 47.2571743,70.2260916 58.0366436,77.6057838 C74.2058474,88.6753222 71.0607743,104.143969 78.2372256,106.521653 C85.4136769,108.899338 85.8246491,101.70152 96.5755236,90.3743916 C107.326398,79.0472629 106.460979,73.9521346 115.48432,67.2780894 C124.507662,60.6040443 127.564366,57.0501135 142.587173,56.3422293 C157.60998,55.634345 157.375953,63.3005525 175.283964,64.4602921 C193.191975,65.6200318 189.583888,63.8928289 213.33639,60.9240154 C237.088893,57.9552018 250.122777,53.8638381 260.062714,53.8638381 C266.689339,53.8638381 271.967821,56.2172305 275.898159,60.9240154 L275.898159,154.253751 L36,154.253751 L36,77.6057838 Z" id="Path-4-Copy" fill="url(#linearGradient-14)"></path>
                        <path d="M36,77.6057838 C38.6096586,69.3347562 45.9552064,69.3347562 58.0366436,77.6057838 C76.1587992,90.0123253 71.250214,104.206734 78.2372256,106.521653 C85.2242372,108.836573 85.6792297,101.854734 96.5755236,90.3743916 C107.471818,78.8940489 107.509889,73.1763161 115.48432,67.2780894 C123.458751,61.3798628 128.673269,56.9978613 142.587173,56.3422293 C156.501076,55.6865973 159.165283,63.4164311 175.283964,64.4602921 C191.402645,65.5041531 188.811836,63.9893272 213.33639,60.9240154 C237.860944,57.8587035 247.948991,53.8638381 260.062714,53.8638381 C268.13853,53.8638381 273.417011,56.2172305 275.898159,60.9240154" id="Path-4-Copy" stroke="#FF8873" stroke-width="1.5"></path>
                        <circle id="Oval-2-Copy-4" stroke="#F05E93" stroke-width="2" fill="#FFFFFF" cx="222" cy="59" r="4"></circle>
                    </g>
                </g>
            </g>
        </g>
    </g>
</svg>