<svg xmlns="http://www.w3.org/2000/svg" xmlns:xlink="http://www.w3.org/1999/xlink" viewBox="0 0 19 20.001">
  <defs>
    <style>
      .cls-1 {
        fill: url(#linear-gradient);
      }

      .cls-2 {
        filter: url(#Settings_-_alt);
      }
    </style>
    <linearGradient id="linear-gradient" x1="0.5" x2="0.5" y2="1" gradientUnits="objectBoundingBox">
      <stop offset="0" stop-color="#fff"/>
      <stop offset="1" stop-color="#cae8f3"/>
    </linearGradient>
    <filter id="Settings_-_alt" x="0" y="0" width="19" height="20.001" filterUnits="userSpaceOnUse">
      <feOffset dy="1" input="SourceAlpha"/>
      <feGaussianBlur result="blur"/>
      <feFlood flood-color="#3ea7f9"/>
      <feComposite operator="in" in2="blur"/>
      <feComposite in="SourceGraphic"/>
    </filter>
  </defs>
  <g class="cls-2" transform="matrix(1, 0, 0, 1, 0, 0)">
    <path id="Settings_-_alt-2" data-name="Settings - alt" class="cls-1" d="M1683.5,832a1.188,1.188,0,0,1-1.187-1.186v-1.19a.239.239,0,0,1,.011-.063.319.319,0,0,0,.012-.054,6.994,6.994,0,0,1-2.972-1.226.3.3,0,0,0-.025.041.227.227,0,0,1-.038.056l-.84.839a1.187,1.187,0,0,1-1.679-1.679l.84-.84a.253.253,0,0,1,.051-.034.293.293,0,0,0,.045-.029,7.038,7.038,0,0,1-1.225-2.972.269.269,0,0,0-.052.013.217.217,0,0,1-.065.013h-1.188a1.188,1.188,0,0,1,0-2.377h1.188a.244.244,0,0,1,.068.013.347.347,0,0,0,.049.012,7.012,7.012,0,0,1,1.225-2.973.328.328,0,0,0-.042-.027.257.257,0,0,1-.053-.037l-.84-.838a1.19,1.19,0,0,1,0-1.679,1.182,1.182,0,0,1,1.679,0l.84.839a.216.216,0,0,1,.037.053.289.289,0,0,0,.026.041,7.051,7.051,0,0,1,2.972-1.225.312.312,0,0,0-.01-.046.255.255,0,0,1-.013-.071v-1.187a1.188,1.188,0,1,1,2.375,0v1.187a.239.239,0,0,1-.012.066.271.271,0,0,0-.011.051,7.042,7.042,0,0,1,2.971,1.225.266.266,0,0,0,.028-.043.221.221,0,0,1,.035-.05l.84-.839a1.187,1.187,0,0,1,1.679,1.679l-.84.838a.24.24,0,0,1-.053.037.306.306,0,0,0-.042.027,7.022,7.022,0,0,1,1.225,2.973.345.345,0,0,0,.049-.011.244.244,0,0,1,.068-.013h1.187a1.188,1.188,0,0,1,0,2.377h-1.187a.215.215,0,0,1-.065-.013.271.271,0,0,0-.052-.013,7.051,7.051,0,0,1-1.225,2.972.268.268,0,0,0,.044.029.235.235,0,0,1,.05.034l.84.84a1.188,1.188,0,0,1-1.679,1.679l-.84-.839a.221.221,0,0,1-.035-.051.288.288,0,0,0-.028-.046,6.984,6.984,0,0,1-2.971,1.226.281.281,0,0,0,.012.055.225.225,0,0,1,.012.062v1.19A1.188,1.188,0,0,1,1683.5,832Zm0-13.057a3.56,3.56,0,1,0,3.559,3.56A3.564,3.564,0,0,0,1683.5,818.94Z" transform="translate(-1674 -813)"/>
  </g>
</svg>
