<svg id="Group_2180" data-name="Group 2180" xmlns="http://www.w3.org/2000/svg" viewBox="0 0 35 33.2">
  <defs>
    <style>
      .cls-1, .cls-2 {
        fill: none;
        stroke: #f5b945;
        stroke-miterlimit: 10;
      }

      .cls-2 {
        opacity: 0.8;
      }
    </style>
  </defs>
  <g id="Group_2176" data-name="Group 2176">
    <line id="Line_716" data-name="Line 716" class="cls-1" y2="1.3" transform="translate(17.5 1.2)"/>
    <line id="Line_717" data-name="Line 717" class="cls-1" x2="0.5" y2="1.2" transform="translate(12 2.3)"/>
    <line id="Line_718" data-name="Line 718" class="cls-1" x2="0.9" y2="0.9" transform="translate(7.3 5.4)"/>
    <line id="Line_719" data-name="Line 719" class="cls-1" x2="1.2" y2="0.5" transform="translate(4.2 10.1)"/>
    <line id="Line_720" data-name="Line 720" class="cls-1" x2="1.3" transform="translate(3.2 15.5)"/>
    <line id="Line_721" data-name="Line 721" class="cls-1" x1="0.5" y2="1.2" transform="translate(22.5 2.3)"/>
    <line id="Line_722" data-name="Line 722" class="cls-1" x1="0.9" y2="0.9" transform="translate(26.8 5.4)"/>
    <line id="Line_723" data-name="Line 723" class="cls-1" x1="1.2" y2="0.5" transform="translate(29.6 10.1)"/>
    <line id="Line_724" data-name="Line 724" class="cls-1" x1="1.2" transform="translate(30.5 15.6)"/>
  </g>
  <g id="Group_2179" data-name="Group 2179">
    <path id="Path_2447" data-name="Path 2447" class="cls-1" d="M0,18.2H2.7A15.214,15.214,0,0,0,15,30.5v2.7"/>
    <path id="Path_2448" data-name="Path 2448" class="cls-1" d="M35,18.2H32.3A15.214,15.214,0,0,1,20,30.5v2.7"/>
  </g>
  <path id="Path_2449" data-name="Path 2449" class="cls-1" d="M0,15.5H2.5a15.109,15.109,0,0,1,15-15,15.109,15.109,0,0,1,15,15H35"/>
  <g id="Group_2183" data-name="Group 2183" transform="translate(3.377 5.007) rotate(-8)">
    <path id="Path_2452" data-name="Path 2452" class="cls-2" d="M.5,10.06A12.269,12.269,0,0,1,11.834.5"/>
    <path id="Path_2453" data-name="Path 2453" class="cls-2" d="M25.366,13v.287A12.285,12.285,0,0,1,14.8,25.428" transform="translate(-0.564 -0.55)"/>
  </g>
</svg>
