<svg xmlns="http://www.w3.org/2000/svg" viewBox="0 0 245.5 73.5">
  <defs>
    <style>
      .cls-1, .cls-10, .cls-13, .cls-14, .cls-15, .cls-2, .cls-3, .cls-7, .cls-8 {
        fill: none;
        stroke-miterlimit: 10;
      }

      .cls-1, .cls-13, .cls-15, .cls-2, .cls-3, .cls-7 {
        stroke: #31f1fe;
      }

      .cls-13, .cls-14, .cls-2, .cls-3 {
        stroke-width: 0.5px;
      }

      .cls-14, .cls-2, .cls-4 {
        opacity: 0.5;
      }

      .cls-3 {
        opacity: 0.9;
      }

      .cls-5 {
        fill: #b5e1ea;
      }

      .cls-6 {
        fill: #009aff;
      }

      .cls-6, .cls-9 {
        opacity: 0.1;
      }

      .cls-11, .cls-7 {
        opacity: 0.2;
      }

      .cls-8 {
        stroke: #fff;
        stroke-width: 0.318px;
      }

      .cls-9 {
        fill: #fff;
      }

      .cls-10, .cls-14 {
        stroke: #36bfbb;
      }

      .cls-10, .cls-12, .cls-15 {
        opacity: 0.3;
      }

      .cls-11, .cls-12 {
        fill: #45f5e7;
      }
    </style>
  </defs>
  <g id="左侧标题栏" transform="translate(-28.5 -373.5)">
    <g id="Group_713" data-name="Group 713" transform="translate(47 373.5)">
      <g id="Group_86" data-name="Group 86">
        <path id="Path_340" data-name="Path 340" class="cls-1" d="M45,34.1V23.2H58.7"/>
        <path id="Path_341" data-name="Path 341" class="cls-2" d="M47.7,50.5H45V36.8"/>
        <line id="Line_88" data-name="Line 88" class="cls-3" x1="106.5" transform="translate(50.5 50.5)"/>
        <path id="Path_342" data-name="Path 342" class="cls-2" d="M162.5,36.8V50.5h-2.7"/>
        <path id="Path_343" data-name="Path 343" class="cls-1" d="M147.7,23l14.8.2V34.1"/>
        <line id="Line_89" data-name="Line 89" class="cls-2" y1="0.2" x2="83.6" transform="translate(61.4 23)"/>
      </g>
      <g id="Group_89" data-name="Group 89">
        <g id="Group_87" data-name="Group 87" class="cls-4">
          <rect id="Rectangle_166" data-name="Rectangle 166" class="cls-5" width="1.2" height="1.2" transform="translate(37.504 30.883) rotate(180)"/>
          <rect id="Rectangle_167" data-name="Rectangle 167" class="cls-5" width="1.2" height="1.2" transform="translate(30.95 30.883) rotate(180)"/>
          <rect id="Rectangle_168" data-name="Rectangle 168" class="cls-5" width="1.2" height="1.2" transform="translate(37.504 37.382) rotate(180)"/>
          <rect id="Rectangle_169" data-name="Rectangle 169" class="cls-5" width="1.2" height="1.2" transform="translate(30.95 37.382) rotate(180)"/>
          <rect id="Rectangle_170" data-name="Rectangle 170" class="cls-5" width="1.2" height="1.2" transform="translate(24.396 37.382) rotate(180)"/>
          <rect id="Rectangle_171" data-name="Rectangle 171" class="cls-5" width="1.2" height="1.2" transform="translate(17.742 37.382) rotate(180)"/>
          <rect id="Rectangle_172" data-name="Rectangle 172" class="cls-5" width="1.2" height="1.2" transform="translate(37.504 43.981) rotate(180)"/>
          <rect id="Rectangle_173" data-name="Rectangle 173" class="cls-5" width="1.2" height="1.2" transform="translate(30.95 43.981) rotate(180)"/>
          <rect id="Rectangle_174" data-name="Rectangle 174" class="cls-5" width="1.2" height="1.2" transform="translate(37.504 50.48) rotate(180)"/>
          <rect id="Rectangle_175" data-name="Rectangle 175" class="cls-5" width="1.2" height="1.2" transform="translate(37.504 24.219) rotate(180)"/>
        </g>
        <g id="Group_88" data-name="Group 88" class="cls-4">
          <rect id="Rectangle_176" data-name="Rectangle 176" class="cls-5" width="1.2" height="1.2" transform="translate(170 29.6)"/>
          <rect id="Rectangle_177" data-name="Rectangle 177" class="cls-5" width="1.2" height="1.2" transform="translate(176.6 29.6)"/>
          <rect id="Rectangle_178" data-name="Rectangle 178" class="cls-5" width="1.2" height="1.2" transform="translate(170 36.2)"/>
          <rect id="Rectangle_179" data-name="Rectangle 179" class="cls-5" width="1.2" height="1.2" transform="translate(176.6 36.2)"/>
          <rect id="Rectangle_180" data-name="Rectangle 180" class="cls-5" width="1.2" height="1.2" transform="translate(183.2 36.2)"/>
          <rect id="Rectangle_181" data-name="Rectangle 181" class="cls-5" width="1.2" height="1.2" transform="translate(189.7 36.2)"/>
          <rect id="Rectangle_182" data-name="Rectangle 182" class="cls-5" width="1.2" height="1.2" transform="translate(170 42.7)"/>
          <rect id="Rectangle_183" data-name="Rectangle 183" class="cls-5" width="1.2" height="1.2" transform="translate(176.6 42.7)"/>
          <rect id="Rectangle_184" data-name="Rectangle 184" class="cls-5" width="1.2" height="1.2" transform="translate(170 49.3)"/>
          <rect id="Rectangle_185" data-name="Rectangle 185" class="cls-5" width="1.2" height="1.2" transform="translate(170 23)"/>
        </g>
      </g>
      <g id="Group_90" data-name="Group 90">
        <rect id="Rectangle_186" data-name="Rectangle 186" class="cls-6" width="107.5" height="7.5" transform="translate(50 33)"/>
        <rect id="Rectangle_187" data-name="Rectangle 187" class="cls-6" width="2.5" height="7.5" transform="translate(50 33)"/>
        <rect id="Rectangle_188" data-name="Rectangle 188" class="cls-6" width="2.5" height="7.5" transform="translate(155 33)"/>
      </g>
      <g id="Group_91" data-name="Group 91">
        <path id="Path_344" data-name="Path 344" class="cls-7" d="M0,.5H27.5L45,18H57.5"/>
        <path id="Path_345" data-name="Path 345" class="cls-7" d="M207.5.5H180L162.5,18H150"/>
        <path id="Path_346" data-name="Path 346" class="cls-7" d="M207.5,73H180L162.5,55.5H150"/>
        <path id="Path_347" data-name="Path 347" class="cls-7" d="M0,73H27.5L45,55.5H57.5"/>
      </g>
      <g id="Group_92" data-name="Group 92" transform="translate(-5 5)">
        <rect id="Rectangle_189" data-name="Rectangle 189" class="cls-8" width="1.8" height="1.8" transform="translate(68.845 1.595) rotate(45)"/>
        <rect id="Rectangle_190" data-name="Rectangle 190" class="cls-8" width="1.8" height="1.8" transform="translate(76.622 1.649) rotate(45)"/>
        <rect id="Rectangle_191" data-name="Rectangle 191" class="cls-8" width="1.8" height="1.8" transform="translate(84.329 1.632) rotate(45)"/>
        <rect id="Rectangle_192" data-name="Rectangle 192" class="cls-8" width="1.8" height="1.8" transform="translate(92.036 1.615) rotate(45)"/>
        <rect id="Rectangle_193" data-name="Rectangle 193" class="cls-8" width="1.8" height="1.8" transform="translate(99.743 1.598) rotate(45)"/>
        <rect id="Rectangle_194" data-name="Rectangle 194" class="cls-8" width="1.8" height="1.8" transform="translate(107.521 1.652) rotate(45)"/>
        <rect id="Rectangle_195" data-name="Rectangle 195" class="cls-8" width="1.8" height="1.8" transform="translate(115.228 1.635) rotate(45)"/>
        <rect id="Rectangle_196" data-name="Rectangle 196" class="cls-8" width="1.8" height="1.8" transform="translate(122.935 1.618) rotate(45)"/>
        <rect id="Rectangle_197" data-name="Rectangle 197" class="cls-8" width="1.8" height="1.8" transform="translate(130.642 1.601) rotate(45)"/>
        <rect id="Rectangle_198" data-name="Rectangle 198" class="cls-8" width="1.8" height="1.8" transform="translate(138.419 1.655) rotate(45)"/>
        <rect id="Rectangle_199" data-name="Rectangle 199" class="cls-8" width="1.8" height="1.8" transform="translate(146.126 1.638) rotate(45)"/>
        <rect id="Rectangle_200" data-name="Rectangle 200" class="cls-9" width="1.8" height="1.8" transform="translate(68.818 6.784) rotate(45)"/>
        <rect id="Rectangle_201" data-name="Rectangle 201" class="cls-9" width="1.8" height="1.8" transform="translate(76.596 6.838) rotate(45)"/>
        <rect id="Rectangle_202" data-name="Rectangle 202" class="cls-9" width="1.8" height="1.8" transform="translate(84.303 6.821) rotate(45)"/>
        <rect id="Rectangle_203" data-name="Rectangle 203" class="cls-9" width="1.8" height="1.8" transform="translate(92.01 6.804) rotate(45)"/>
        <rect id="Rectangle_204" data-name="Rectangle 204" class="cls-9" width="1.8" height="1.8" transform="translate(99.717 6.787) rotate(45)"/>
        <rect id="Rectangle_205" data-name="Rectangle 205" class="cls-9" width="1.8" height="1.8" transform="translate(107.494 6.841) rotate(45)"/>
        <rect id="Rectangle_206" data-name="Rectangle 206" class="cls-9" width="1.8" height="1.8" transform="translate(115.201 6.824) rotate(45)"/>
        <rect id="Rectangle_207" data-name="Rectangle 207" class="cls-9" width="1.8" height="1.8" transform="translate(122.908 6.807) rotate(45)"/>
        <rect id="Rectangle_208" data-name="Rectangle 208" class="cls-9" width="1.8" height="1.8" transform="translate(130.615 6.79) rotate(45)"/>
        <rect id="Rectangle_209" data-name="Rectangle 209" class="cls-9" width="1.8" height="1.8" transform="translate(138.393 6.844) rotate(45)"/>
        <rect id="Rectangle_210" data-name="Rectangle 210" class="cls-9" width="1.8" height="1.8" transform="translate(146.1 6.827) rotate(45)"/>
      </g>
    </g>
    <g id="装饰" transform="translate(28.5 385.5)">
      <path id="Path_425" data-name="Path 425" class="cls-10" d="M10.5,45.5v5H.5V.5h10v5"/>
      <rect id="Rectangle_346" data-name="Rectangle 346" class="cls-11" width="5" height="45" transform="translate(3 3)"/>
      <rect id="Rectangle_347" data-name="Rectangle 347" class="cls-12" width="2.5" height="35" transform="translate(10.5 8)"/>
      <rect id="Rectangle_348" data-name="Rectangle 348" class="cls-13" width="2.5" height="2.5" transform="translate(4.2 24.2)"/>
      <rect id="Rectangle_349" data-name="Rectangle 349" class="cls-13" width="2.5" height="2.5" transform="translate(4.2 5.5)"/>
      <rect id="Rectangle_350" data-name="Rectangle 350" class="cls-13" width="2.5" height="2.5" transform="translate(4.2 43)"/>
      <line id="Line_139" data-name="Line 139" class="cls-14" y2="10" transform="translate(5.5 10.5)"/>
      <line id="Line_140" data-name="Line 140" class="cls-14" y2="10" transform="translate(5.5 30.5)"/>
    </g>
    <g id="装饰-2" data-name="装饰" transform="translate(274 436.5) rotate(180)">
      <path id="Path_425-2" data-name="Path 425" class="cls-15" d="M10.5,45.5v5H.5V.5h10v5"/>
      <rect id="Rectangle_346-2" data-name="Rectangle 346" class="cls-11" width="5" height="45" transform="translate(3 3)"/>
      <rect id="Rectangle_347-2" data-name="Rectangle 347" class="cls-12" width="2.5" height="35" transform="translate(10.5 8)"/>
      <rect id="Rectangle_348-2" data-name="Rectangle 348" class="cls-13" width="2.5" height="2.5" transform="translate(4.2 24.2)"/>
      <rect id="Rectangle_349-2" data-name="Rectangle 349" class="cls-13" width="2.5" height="2.5" transform="translate(4.2 5.5)"/>
      <rect id="Rectangle_350-2" data-name="Rectangle 350" class="cls-13" width="2.5" height="2.5" transform="translate(4.2 43)"/>
      <line id="Line_139-2" data-name="Line 139" class="cls-2" y2="10" transform="translate(5.5 10.5)"/>
      <line id="Line_140-2" data-name="Line 140" class="cls-2" y2="10" transform="translate(5.5 30.5)"/>
    </g>
  </g>
</svg>
