<svg xmlns="http://www.w3.org/2000/svg" xmlns:xlink="http://www.w3.org/1999/xlink" viewBox="0 0 20 14">
  <defs>
    <style>
      .cls-1 {
        fill: url(#linear-gradient);
      }
    </style>
    <linearGradient id="linear-gradient" x1="0.5" x2="0.5" y2="1" gradientUnits="objectBoundingBox">
      <stop offset="0" stop-color="#31f1fe"/>
      <stop offset="1" stop-color="#acf7f1"/>
    </linearGradient>
  </defs>
  <g id="Group_2303" data-name="Group 2303" transform="translate(46 -39)">
    <path id="Path_2504" data-name="Path 2504" class="cls-1" d="M288.736,14h-7.523a3.444,3.444,0,0,1-3.513-3.367V3.367A3.444,3.444,0,0,1,281.214,0h7.523a3.444,3.444,0,0,1,3.513,3.367v.665L295.808.62a1,1,0,0,1,.766-.31.912.912,0,0,1,.405.089,1.093,1.093,0,0,1,.721,1.019V12.582a1.015,1.015,0,0,1-.676.975,1.352,1.352,0,0,1-.45.089,1.307,1.307,0,0,1-.811-.31L292.25,9.924v.709A3.444,3.444,0,0,1,288.736,14ZM281.259.842a2.585,2.585,0,0,0-2.613,2.525v7.266a2.556,2.556,0,0,0,2.613,2.525h7.522a2.585,2.585,0,0,0,2.613-2.525V7.93l5.045,4.873a.235.235,0,0,0,.18.089.353.353,0,0,0,.135-.044.243.243,0,0,0,.135-.222V1.418a.243.243,0,0,0-.135-.222c-.135-.044-.225.044-.27.044l-5.045,4.873V3.367A2.556,2.556,0,0,0,288.826.842h-7.568Z" transform="translate(-323.7 39)"/>
  </g>
</svg>
